<svg width="241" height="138" viewBox="0 0 241 138" fill="none" xmlns="http://www.w3.org/2000/svg">
<path d="M231.774 29.746H6.97754V123.734H231.774V29.746Z" fill="#FBF4EA"/>
<path d="M222.451 10.9989H16.2916C11.1427 10.9989 6.96973 15.1749 6.96973 20.3276V35.6956H231.766V20.3276C231.766 15.1749 227.593 10.9989 222.445 10.9989H222.451Z" fill="#B8B6E7"/>
<path d="M206.628 27.0259C208.658 27.0259 210.304 25.3789 210.304 23.3472C210.304 21.3155 208.658 19.6685 206.628 19.6685C204.598 19.6685 202.952 21.3155 202.952 23.3472C202.952 25.3789 204.598 27.0259 206.628 27.0259Z" fill="white" stroke="black" stroke-width="0.738871" stroke-miterlimit="10"/>
<path d="M218.867 27.0259C220.897 27.0259 222.543 25.3789 222.543 23.3472C222.543 21.3155 220.897 19.6685 218.867 19.6685C216.836 19.6685 215.19 21.3155 215.19 23.3472C215.19 25.3789 216.836 27.0259 218.867 27.0259Z" fill="white" stroke="black" stroke-width="0.738871" stroke-miterlimit="10"/>
<path d="M194.392 27.0259C196.422 27.0259 198.068 25.3789 198.068 23.3472C198.068 21.3155 196.422 19.6685 194.392 19.6685C192.362 19.6685 190.716 21.3155 190.716 23.3472C190.716 25.3789 192.362 27.0259 194.392 27.0259Z" fill="white" stroke="black" stroke-width="0.738871" stroke-miterlimit="10"/>
<path d="M132.706 123.758L120.45 59.6075L117.906 53.5921C117.906 53.5921 111.027 46.4982 110.62 42.9573V41.8668C110.62 41.8668 107.47 45.5156 103.998 37.9844C103.998 37.9844 103.483 32.3464 107.285 32.688L103.776 21.5798L109.302 9.54305C109.302 9.54305 136.268 9.06374 137.831 16.541L140.118 23.587C140.118 23.587 144.063 25.1987 143.315 31.1182C143.315 31.1182 144.135 32.9995 140.848 33.8323C140.848 33.8323 143.399 46.4203 138.729 50.117L139.16 49.5538L143.411 54.2811L148.62 58.6309L156.594 93.9563C156.594 93.9563 150.47 112.11 150.553 113.003C150.637 113.896 144.512 123.674 144.512 123.674L132.7 123.764L132.706 123.758Z" fill="#FBF4EA"/>
<path d="M88.6549 123.356L93.1572 123.757H191.435C191.435 123.757 205.768 97.0537 190.537 82.6203C175.306 68.187 170.127 60.0446 148.089 58.5527L133.959 109.15L120.339 60.7096C120.339 60.7096 103.994 61.3208 83.7934 80.7809C67.9696 96.0351 75.3217 111.331 72.7832 123.626" fill="#FF8049"/>
<path d="M88.6549 123.356L93.1572 123.757H191.435C191.435 123.757 205.768 97.0537 190.537 82.6203C175.306 68.187 170.127 60.0446 148.089 58.5527L133.959 109.15L120.339 60.7096C120.339 60.7096 103.994 61.3208 83.7934 80.7809C67.9696 96.0351 75.3217 111.331 72.7832 123.626" stroke="black" stroke-width="0.901062" stroke-miterlimit="10"/>
<path d="M147.524 58.7565V58.7685C147.865 58.8943 148.207 59.0321 148.548 59.1759L148.626 58.6247C148.65 58.4509 148.584 58.2772 148.458 58.1573L140.609 50.9616C140.483 50.8478 140.298 50.7879 140.142 50.8298C139.974 50.8658 139.831 50.9796 139.759 51.1354L132.293 67.7796L122.025 60.3622C121.923 60.2903 121.804 60.2723 121.684 60.2603L119.81 60.3502C119.654 60.3562 119.511 60.4341 119.415 60.5599C119.319 60.6857 119.283 60.8415 119.313 60.9973L119.367 61.2669C119.786 61.4706 120.199 61.6803 120.594 61.92L120.486 61.3927L121.552 61.3388L132.203 69.0378C132.335 69.1276 132.503 69.1576 132.658 69.1217C132.814 69.0797 132.94 68.9719 133.005 68.8221L140.441 52.2558L147.536 58.7625L147.524 58.7565Z" fill="#1A1A1A"/>
<path d="M132.969 68.3307C132.861 68.145 132.651 68.0252 132.448 68.0671C132.238 68.0911 132.059 68.2349 131.993 68.4326L127.155 83.3692C127.395 83.9144 127.503 84.5016 127.622 85.0947L132.645 69.9005L140.812 83.9743C141.009 83.501 141.117 82.9917 141.123 82.4705C141.123 82.4525 141.135 82.4346 141.153 82.4226L132.975 68.3247L132.969 68.3307Z" fill="#1A1A1A"/>
<path d="M95.7295 112.793C96.0648 112.769 96.2863 112.512 96.2624 112.218C95.5739 103.231 96.6635 91.2782 96.6695 91.1583C96.6935 90.8648 96.4779 90.6011 96.1846 90.5772C95.8672 90.5652 95.6278 90.7689 95.6038 91.0625C95.5918 91.1823 94.4962 103.225 95.1967 112.302C95.2206 112.584 95.4541 112.799 95.7295 112.799V112.793Z" fill="#1A1A1A"/>
<path d="M169.264 102.937C169.479 103.525 169.335 103.626 169.18 103.626L169.264 102.937Z" fill="#1A1A1A"/>
<path d="M207.569 87.5392L205.558 93.1472C205.558 93.1472 203.109 93.7283 199.816 93.6684C196.523 93.6085 194.26 93.5786 193.733 95.3281C193.206 97.0776 192.68 98.9649 194.152 99.54C194.152 99.54 192.195 101.985 192.434 103.105C192.674 104.225 193.494 105.178 193.494 105.178C193.494 105.178 191.949 106.22 192.41 108.03C192.871 109.839 193.889 112.452 199.05 112.248C204.217 112.044 208.198 111.139 209.282 110.217C210.365 109.3 212.658 104.633 212.509 99.6778C212.359 94.7229 212.958 91.7572 207.563 87.5332L207.569 87.5392Z" fill="#FBF4EA"/>
<path d="M175.76 73.9867L156.613 129.371H193.069L198.954 112.344C197.954 112.17 196.972 111.841 196.176 111.529C194.428 110.84 192.29 109.456 192.506 107.287C192.62 106.167 193.242 105.514 194.11 105.178C193.44 104.801 192.889 104.291 192.602 103.566C191.608 101.062 194.194 99.9536 196.194 99.7139C194.901 99.4143 193.709 98.7553 193.566 97.2694C193.368 95.2263 195.511 94.0101 197.218 93.6745C199.355 93.2611 202.367 94.6332 204.199 93.327C204.684 92.9795 205.18 92.9196 205.623 93.0394L212.209 73.9867H175.754H175.76Z" fill="white"/>
<path d="M209 73.9687L209.778 72.0695L173.497 71.7759L155.2 124.95H158.062L175.766 73.9687H209Z" fill="#CCCCCC"/>
<path d="M192.326 109.342C192.326 109.342 193.033 112.829 198.577 113.788L199.187 112.014C199.187 112.014 195.517 112.865 192.332 109.342H192.326Z" fill="#CCCCCC"/>
<path d="M192.345 107.053C192.345 107.053 198.086 110.636 207.193 106.137L197.997 106.388C197.997 106.388 193.973 105.801 193.488 105.178L192.345 107.053Z" fill="#CCCCCC"/>
<path d="M193.033 101.343C193.033 101.343 200.116 104.273 207.199 99.6838L198.691 100.678C198.691 100.678 194.662 100.091 194.183 99.4681L193.039 101.343H193.033Z" fill="#CCCCCC"/>
<path d="M198.816 112.308L195.212 123.602L201.211 123.62C201.211 123.62 205.306 115.933 206.186 111.595C206.186 111.595 200.906 112.626 198.816 112.314V112.308Z" fill="#FF8049"/>
<path d="M201.463 123.68C203.008 119.587 204.624 115.579 205.798 111.481C205.384 115.855 203.744 119.923 201.816 123.47C201.744 123.602 201.607 123.68 201.463 123.68Z" fill="#1A1A1A"/>
<path d="M200.763 112.709C199.691 112.709 198.559 112.643 197.392 112.506C194.919 112.224 191.411 110.445 191.728 107.533C191.842 106.544 192.411 105.699 193.297 105.22C193.027 106.281 192.608 106.898 192.53 107.617C192.261 110.067 195.626 111.487 197.488 111.703C203.678 112.416 207.773 111.08 209.067 109.432C210.031 108.198 210.755 106.574 211.282 104.471C212.09 101.23 212.318 97.7727 211.934 94.4654C211.533 91.0263 207.522 87.8808 207.486 87.8509C208.157 87.3476 212.294 90.5949 212.737 94.3695C213.132 97.7727 212.898 101.326 212.066 104.663C211.509 106.88 210.737 108.599 209.701 109.923C208.312 111.697 204.966 112.703 200.763 112.703V112.709Z" fill="#1A1A1A"/>
<path d="M197.661 100.72C197.212 100.72 196.853 100.702 196.601 100.666C195.41 100.511 194.051 100.331 193.458 99.3722C192.77 98.2698 192.608 96.9936 193.009 95.8732C193.338 94.9446 194.045 94.1837 195.111 93.6085C196.027 93.1112 196.984 93.1711 197.912 93.219C198.978 93.261 199.391 93.267 199.786 93.267C206.558 93.267 207.851 91.7511 207.863 91.7332C208.366 92.4162 206.851 94.2376 198.517 94.0518C197.008 93.9739 196.206 93.926 195.494 94.3095C194.614 94.7888 194.033 95.4059 193.769 96.1369C193.452 97.0236 193.59 98.0421 194.147 98.9408C194.536 99.5699 195.667 99.7197 196.416 99.8216C198.469 100.121 206.139 99.2883 206.815 99.0307C206.342 100.079 200.439 100.714 197.667 100.714L197.661 100.72Z" fill="#1A1A1A"/>
<path d="M199.102 106.928C198.03 106.928 196.965 106.886 195.977 106.784C193.923 106.574 191.816 105.196 192.043 102.662C192.145 101.446 192.965 100.146 194.127 99.3547C193.63 100.673 192.929 101.763 192.846 102.734C192.672 104.723 194.384 105.813 196.061 105.987C200.677 106.449 207.077 105.568 207.149 105.556C207.209 106.365 203.143 106.934 199.108 106.934L199.102 106.928Z" fill="#1A1A1A"/>
<path d="M193.055 129.791H156.6C156.229 129.234 175.376 73.8489 175.376 73.8489C175.765 73.5673 212.214 73.5673 212.214 73.5673C212.585 74.1245 205.814 93.7164 205.814 93.7164C205.053 93.4468 211.639 74.4061 211.639 74.4061H176.034L157.175 128.952H192.78L197.947 114.009C198.707 114.285 193.445 129.509 193.445 129.509C193.385 129.677 193.229 129.791 193.055 129.791Z" fill="#1A1A1A"/>
<path d="M158.296 125.363H155.2C154.817 124.83 173.048 71.6441 173.048 71.6441C173.431 71.3745 209.886 71.3745 209.886 71.3745C210.269 71.9077 209.665 73.6632 209.665 73.6632C208.898 73.3996 209.317 72.1834 209.317 72.1834H173.712L155.763 124.56H158.296C158.697 125.19 158.517 125.369 158.296 125.369V125.363Z" fill="#1A1A1A"/>
<path d="M204.048 78.2707C204.988 77.7974 206.707 75.958 207.431 73.4177C208.161 70.8773 207.689 68.4208 206.401 68.0493C205.186 67.7078 203.641 69.2416 202.833 71.5423C203.031 68.5287 204.988 66.8031 206.623 67.2764C208.389 67.7857 209.09 70.5837 208.209 73.6453C207.419 76.3894 205.677 78.2767 204.048 78.2767V78.2707Z" fill="#1A1A1A"/>
<path d="M192.877 78.2707C193.822 77.7914 195.535 75.958 196.259 73.4177C196.99 70.8773 196.517 68.4208 195.229 68.0493C194.008 67.7078 192.469 69.2416 191.661 71.5423C191.859 68.5287 193.81 66.8031 195.445 67.2764C197.217 67.7857 197.912 70.5837 197.032 73.6453C196.241 76.3834 194.499 78.2767 192.871 78.2767L192.877 78.2707Z" fill="#1A1A1A"/>
<path d="M181.616 78.2707C182.562 77.7914 184.274 75.958 184.999 73.4177C185.37 72.1295 185.448 70.8413 185.214 69.7988C184.999 68.8402 184.556 68.2171 183.963 68.0493C182.741 67.7078 181.203 69.2416 180.395 71.5423C180.598 68.5287 182.55 66.8031 184.184 67.2764C185.07 67.5341 185.717 68.3669 185.998 69.6251C186.262 70.7994 186.178 72.2254 185.771 73.6453C184.981 76.3834 183.238 78.2767 181.61 78.2767L181.616 78.2707Z" fill="#1A1A1A"/>
<path d="M203.203 83.1058H180.021C180.021 82.297 203.203 82.297 203.203 82.297C203.605 82.9261 203.425 83.1058 203.203 83.1058Z" fill="#1A1A1A"/>
<path d="M201.122 89.3005H177.94C177.94 88.4917 201.122 88.4917 201.122 88.4917C201.53 89.1208 201.344 89.3005 201.122 89.3005Z" fill="#1A1A1A"/>
<path d="M193.493 100.858H173.939C173.939 100.05 193.493 100.05 193.493 100.05C193.894 100.679 193.715 100.858 193.493 100.858Z" fill="#1A1A1A"/>
<path d="M194.008 95.3701H175.802C175.802 94.5613 194.008 94.5613 194.008 94.5613C194.416 95.1904 194.23 95.3701 194.008 95.3701Z" fill="#1A1A1A"/>
<path d="M192.428 106.927H171.893C171.893 106.119 192.428 106.119 192.428 106.119C192.829 106.748 192.65 106.927 192.428 106.927Z" fill="#1A1A1A"/>
<path d="M193.033 112.997H169.851C169.851 112.188 193.033 112.188 193.033 112.188C193.44 112.817 193.254 112.997 193.033 112.997Z" fill="#1A1A1A"/>
<path d="M0 123.445L93.7106 123.445" stroke="#1A1A1A" stroke-width="0.901062" stroke-miterlimit="10"/>
<path d="M105.586 32.3941C105.586 32.3941 96.2941 12.9459 104.478 9.93223C104.478 9.93223 106.412 2.76049 115.548 1.22069C124.679 -0.319107 130.708 1.05892 135.509 8.24265C140.311 15.4204 139.988 23.1014 139.988 23.1014L137.898 24.0001L136.629 19.3328L132.54 12.7901C132.54 12.7901 126.205 17.6911 119.554 18.4161C112.902 19.1411 106.825 17.0381 106.825 17.0381C106.825 17.0381 107.622 25.3362 106.514 27.3853L107.382 32.4181L105.586 32.4001V32.3941Z" fill="#B8B6E7" stroke="#231F20" stroke-width="0.738871" stroke-miterlimit="10"/>
<path d="M127.773 34.2932C126.318 33.6761 125.36 33.5024 124.581 33.8019C123.516 34.1734 123.055 35.2099 123.049 35.2219C122.145 34.7666 122.755 33.3766 124.234 32.8493C125.324 32.4718 126.533 32.6396 127.88 33.3586C128.018 34.1674 127.904 34.2513 127.779 34.2872L127.773 34.2932Z" fill="#1A1A1A"/>
<path d="M142.291 34.1078C141.848 34.2276 141.351 34.1317 140.848 33.8322C141.303 33.1911 141.776 33.251 142.165 33.0892C142.752 32.8496 143.159 32.1486 143.315 31.118C143.464 30.0935 143.344 28.8593 142.973 27.649C142.602 26.4327 142.027 25.3902 141.351 24.7072C140.674 24.0182 139.974 23.7905 139.387 24.0182C139.136 24.126 138.92 24.3118 138.734 24.5754C138.525 23.4071 138.788 23.1794 139.094 23.0536C139.806 22.778 140.644 23.0536 141.47 23.8864C142.291 24.7192 142.991 25.9834 143.44 27.4513C143.889 28.9192 144.039 30.417 143.853 31.6573C143.668 32.9035 143.177 33.7543 142.464 34.0479C142.404 34.0718 142.351 34.0898 142.291 34.1078Z" fill="#1A1A1A"/>
<path d="M109.134 42.915C106.913 43.3044 104.709 41.0636 103.997 37.9721C103.29 34.8865 104.338 32.1124 106.326 31.7529C106.739 31.6811 107.17 31.723 107.601 31.8668C107.248 32.7116 106.895 32.6816 106.553 32.7355C104.889 32.9992 104.045 35.3179 104.632 37.8642C105.218 40.4106 107.032 42.2619 108.679 41.9803C109.23 41.8785 109.703 41.5729 110.068 41.0576C110.2 42.3937 109.697 42.7592 109.134 42.909V42.915Z" fill="#1A1A1A"/>
<path d="M129.602 54.7722C114.43 58.9123 111.742 49.0384 107.288 32.6818L105.935 27.7209C106.527 26.4267 106.689 20.9326 106.665 17.4935C105.019 16.6307 104.168 15.7919 104.145 15.768C104.935 15.1329 112.371 22.4125 126.937 15.2467C128.045 14.7015 132.182 12.5326 132.182 12.5326C132.876 12.7723 135.858 17.823 136.942 19.0273C137.049 19.213 138.792 24.7132 138.792 24.7132C143.001 40.1651 145.779 50.3565 129.608 54.7662L129.602 54.7722ZM106.952 27.637L108.252 32.4122C112.688 48.6969 115.131 57.672 129.332 53.7956C144.527 49.6495 142.144 40.896 137.81 24.9948L136.11 19.6145C135.098 18.4401 132.948 14.8693 132.212 13.641C131.128 14.2102 128.266 15.7021 127.374 16.1454C117.999 20.7648 111.377 19.5785 107.671 17.9668C107.677 20.3155 107.623 25.9953 106.952 27.631V27.637Z" fill="#1A1A1A"/>
<path d="M136.627 19.3269L137.896 23.9942L139.986 23.0955C139.986 23.0955 140.309 15.4205 135.508 8.23672C132.011 3.0122 127.862 0.867263 122.336 0.675537C124.228 1.59822 130.993 5.24101 129.592 9.49493C127.97 14.4079 111.134 18.0267 111.021 18.0507C113.332 18.4581 116.367 18.7577 119.546 18.4102C126.204 17.6852 132.532 12.7842 132.532 12.7842L136.621 19.3269H136.627Z" fill="#FBF4EA"/>
<path d="M132.599 46.8754C132.084 47.0132 131.503 47.0731 130.856 47.0372C132.078 46.0906 132.964 45.8149 133.527 45.2038C134.485 44.1793 134.299 42.5197 134.299 42.5017C135.311 42.4657 135.544 44.5148 134.269 45.8868C133.826 46.3602 133.269 46.6897 132.599 46.8754Z" fill="#1A1A1A"/>
<path d="M118.721 54.2745L121.547 61.3384" stroke="black" stroke-width="0.901062" stroke-miterlimit="10"/>
<path d="M139.16 48.8885L140.495 51.7584" stroke="black" stroke-width="0.901062" stroke-miterlimit="10"/>
<path d="M140.12 23.5808C139.27 12.3829 134.301 7.23622 132.175 5.03736C127.098 -0.223116 117.758 0.166327 111.167 3.28187C106.598 5.4328 104.97 10.0522 104.958 10.1001C103.928 10.7891 103.288 11.3523 102.689 12.1672C100.641 14.9532 101.731 18.596 101.743 18.6319C102.856 22.8559 106.06 32.2205 106.089 32.3104C105.102 32.544 101.893 23.1435 100.779 18.9075C100.731 18.7637 99.5217 14.7734 101.881 11.568C102.527 10.6813 103.234 10.0462 104.078 9.57887C104.443 8.62024 106.269 4.46817 110.741 2.36518C117.668 -0.900148 127.493 -1.25963 132.906 4.33636C136.336 7.88928 140.294 13.2336 140.497 23.0836C140.497 23.3172 140.342 23.5209 140.126 23.5808H140.12Z" fill="#1A1A1A"/>
<path d="M130.719 38.6913C130.318 38.236 129.922 37.7626 129.539 37.2833C129.539 37.9244 129.545 38.5236 129.557 39.0688C129.581 40.1053 129.599 40.998 129.282 41.6451C128.498 42.0525 126.336 41.5432 124.768 42.2263C125.127 42.3521 128.33 43.4545 129.815 42.6816C130.204 42.4779 130.473 42.1544 130.587 41.7529C130.761 41.1418 130.737 40.2131 130.713 39.0388C130.713 38.925 130.713 38.8052 130.707 38.6913H130.719Z" fill="#1A1A1A"/>
<path d="M81.6309 123.883C81.6309 123.883 88.7255 114.027 98.5982 112.691C108.471 111.349 113.65 112.943 116.021 115.777C118.391 118.611 119.2 121.337 119.17 127.975C119.134 134.614 116.835 135.854 115.721 136.1C114.608 136.351 112.752 135.297 112.626 132.379C112.626 132.379 111.267 136.879 108.968 136.957C106.675 137.034 105.861 132.008 105.861 132.008C105.861 132.008 105.124 136.04 103.328 136.166C101.532 136.291 99.3586 133.188 98.6761 129.959C97.9935 126.735 96.8141 123.35 96.8141 123.35L81.6309 123.883Z" fill="#FBF4EA"/>
<path d="M81.6304 123.668C81.7981 123.668 81.9657 123.59 82.0735 123.434C82.1393 123.338 88.9885 113.62 102.022 112.518C109.83 111.865 114.655 113.596 117.182 118C117.703 118.905 118.116 120.187 118.379 121.703C118.427 121.99 118.696 122.182 119.002 122.14C119.295 122.086 119.487 121.81 119.439 121.517C119.151 119.857 118.702 118.491 118.116 117.467C115.362 112.661 110.219 110.75 101.939 111.451C88.3898 112.602 81.2712 122.727 81.1993 122.829C81.0317 123.075 81.0916 123.404 81.337 123.572C81.4269 123.638 81.5346 123.668 81.6424 123.668H81.6304Z" fill="#1A1A1A"/>
<path d="M108.895 137.496C109.41 137.496 109.931 137.34 110.422 137.035C111.248 136.519 112.069 135.501 112.53 133.967C112.847 134.848 113.296 135.675 113.93 136.172C114.487 136.609 115.128 136.765 115.822 136.633C119.301 135.992 120.397 127.293 119.439 121.745C119.391 121.457 119.133 121.259 118.816 121.307C118.529 121.361 118.331 121.637 118.379 121.93C119.409 127.88 117.942 135.153 115.625 135.585C115.236 135.657 114.9 135.579 114.595 135.333C113.446 134.428 112.991 131.654 112.889 130.42C112.889 130.348 112.877 130.276 112.871 130.198C112.847 129.905 112.583 129.665 112.302 129.707C112.009 129.725 111.787 129.983 111.805 130.27C111.805 130.288 111.805 130.354 111.817 130.45C112.027 133.602 110.907 135.477 109.865 136.13C109.285 136.489 108.68 136.525 108.153 136.22C106.716 135.381 106.405 132.565 106.405 131.547C106.405 131.253 106.171 131.019 105.878 131.013C105.579 131.013 105.345 131.241 105.333 131.529C105.297 132.547 104.902 135.261 103.483 135.615C103.19 135.687 102.812 135.597 102.411 135.351C101.759 134.944 99.5136 133.092 98.0468 126.298C96.7356 120.235 96.0112 118.809 95.9812 118.755C95.8435 118.491 95.5202 118.395 95.2568 118.527C94.9993 118.665 94.8976 118.983 95.0293 119.246C95.0353 119.258 95.7417 120.69 96.999 126.526C98.0647 131.457 99.8309 135.01 101.843 136.262C102.495 136.669 103.148 136.807 103.74 136.657C104.776 136.4 105.405 135.507 105.794 134.542C106.117 135.573 106.674 136.597 107.614 137.149C108.021 137.388 108.458 137.502 108.907 137.502L108.895 137.496Z" fill="#1A1A1A"/>
<path d="M105.86 132.074C106.22 132.032 106.429 131.768 106.393 131.474C106.381 131.391 105.399 123.224 104.453 118.144C104.4 117.856 104.13 117.658 103.831 117.712C103.537 117.766 103.346 118.048 103.4 118.335C104.34 123.386 105.316 131.516 105.328 131.6C105.363 131.87 105.591 132.074 105.86 132.074Z" fill="#1A1A1A"/>
<path d="M112.362 131.528C112.722 131.486 112.931 131.223 112.895 130.929C112.883 130.845 111.901 122.679 110.955 117.598C110.901 117.311 110.614 117.113 110.333 117.167C110.039 117.221 109.848 117.502 109.902 117.79C110.842 122.841 111.818 130.971 111.829 131.055C111.865 131.325 112.093 131.528 112.362 131.528Z" fill="#1A1A1A"/>
<path d="M95.4609 97.6171L102.592 94.2439L95.9459 98.4858L95.4609 97.6171Z" fill="black"/>
<path d="M118.621 43.6435C121.5 42.9607 123.1 39.3037 122.193 35.4753C121.287 31.647 118.218 29.097 115.338 29.7798C112.458 30.4626 110.859 34.1196 111.765 37.948C112.672 41.7764 115.741 44.3264 118.621 43.6435Z" fill="white"/>
<path d="M135.015 39.1777C137.895 38.4949 139.494 34.8379 138.588 31.0095C137.682 27.1811 134.612 24.6311 131.733 25.314C128.853 25.9968 127.253 29.6538 128.16 33.4822C129.066 37.3106 132.136 39.8605 135.015 39.1777Z" fill="white"/>
<path d="M119.043 44.2993C115.726 45.204 112.104 42.5378 110.967 38.3618C109.829 34.1858 111.601 30.0457 114.918 29.141C118.235 28.2363 121.863 30.8965 123.001 35.0785C124.138 39.2545 122.366 43.3946 119.049 44.2993H119.043ZM115.181 30.1176C112.397 30.8785 110.943 34.4614 111.936 38.0982C112.93 41.741 116.002 44.0836 118.78 43.3287C121.558 42.5738 123.019 38.9909 122.025 35.3481C121.031 31.7053 117.959 29.3567 115.181 30.1176Z" fill="#1A1A1A"/>
<path d="M135.435 39.8293C132.118 40.734 128.496 38.0678 127.358 33.8918C126.221 29.7158 127.993 25.5757 131.31 24.671C134.626 23.7663 138.255 26.4265 139.392 30.6085C140.53 34.7845 138.758 38.9246 135.435 39.8293ZM131.573 25.6476C128.789 26.4085 127.34 29.9854 128.328 33.6282C129.322 37.271 132.387 39.6136 135.171 38.8587C137.955 38.0978 139.41 34.5209 138.416 30.8781C137.422 27.2353 134.357 24.8867 131.573 25.6476Z" fill="#1A1A1A"/>
<path d="M195.531 123.445H240.584" stroke="#1A1A1A" stroke-width="0.901062" stroke-miterlimit="10"/>
</svg>
