<svg width="59" height="10" viewBox="0 0 59 10" fill="none" xmlns="http://www.w3.org/2000/svg">
<path d="M10.0625 4.55508L7.98604 6.37752L8.60807 9.09081C8.64098 9.23265 8.63159 9.3811 8.58107 9.51761C8.53054 9.65411 8.44112 9.77261 8.32399 9.85828C8.20686 9.94396 8.06721 9.99301 7.92251 9.99931C7.77781 10.0056 7.63447 9.96886 7.51042 9.89368L5.1572 8.45832L2.80905 9.89368C2.685 9.96886 2.54166 10.0056 2.39696 9.99931C2.25226 9.99301 2.11261 9.94396 1.99548 9.85828C1.87835 9.77261 1.78893 9.65411 1.7384 9.51761C1.68788 9.3811 1.67848 9.23265 1.7114 9.09081L2.33251 6.3803L0.255545 4.55508C0.145692 4.4598 0.0662568 4.33403 0.0272009 4.19353C-0.011855 4.05304 -0.00879319 3.90407 0.0360024 3.76532C0.0807979 3.62656 0.165333 3.5042 0.279007 3.41356C0.392681 3.32293 0.530433 3.26807 0.67499 3.25585L3.41266 3.0174L4.4813 0.454129C4.53711 0.319629 4.63124 0.204741 4.75184 0.123931C4.87244 0.04312 5.01412 0 5.15904 0C5.30397 0 5.44565 0.04312 5.56625 0.123931C5.68685 0.204741 5.78098 0.319629 5.83679 0.454129L6.90865 3.0174L9.6454 3.25585C9.78996 3.26807 9.92771 3.32293 10.0414 3.41356C10.1551 3.5042 10.2396 3.62656 10.2844 3.76532C10.3292 3.90407 10.3322 4.05304 10.2932 4.19353C10.2541 4.33403 10.1747 4.4598 10.0648 4.55508H10.0625Z" fill="#1A1A1A"/>
<path d="M22.0665 4.55508L19.9899 6.37752L20.612 9.09081C20.6449 9.23265 20.6355 9.3811 20.585 9.51761C20.5344 9.65411 20.445 9.77261 20.3279 9.85828C20.2108 9.94396 20.0711 9.99301 19.9264 9.99931C19.7817 10.0056 19.6384 9.96886 19.5143 9.89368L17.1611 8.45832L14.813 9.89368C14.6889 9.96886 14.5456 10.0056 14.4009 9.99931C14.2562 9.99301 14.1165 9.94396 13.9994 9.85828C13.8823 9.77261 13.7928 9.65411 13.7423 9.51761C13.6918 9.3811 13.6824 9.23265 13.7153 9.09081L14.3364 6.3803L12.2595 4.55508C12.1496 4.4598 12.0702 4.33403 12.0311 4.19353C11.9921 4.05304 11.9951 3.90407 12.0399 3.76532C12.0847 3.62656 12.1692 3.5042 12.2829 3.41356C12.3966 3.32293 12.5343 3.26807 12.6789 3.25585L15.4166 3.0174L16.4852 0.454129C16.541 0.319629 16.6351 0.204741 16.7557 0.123931C16.8763 0.04312 17.018 0 17.163 0C17.3079 0 17.4496 0.04312 17.5702 0.123931C17.6908 0.204741 17.7849 0.319629 17.8407 0.454129L18.9126 3.0174L21.6493 3.25585C21.7939 3.26807 21.9316 3.32293 22.0453 3.41356C22.159 3.5042 22.2435 3.62656 22.2883 3.76532C22.3331 3.90407 22.3362 4.05304 22.2971 4.19353C22.258 4.33403 22.1786 4.4598 22.0688 4.55508H22.0665Z" fill="#1A1A1A"/>
<path d="M34.0694 4.55508L31.9929 6.37752L32.6149 9.09081C32.6478 9.23265 32.6384 9.3811 32.5879 9.51761C32.5374 9.65411 32.448 9.77261 32.3308 9.85828C32.2137 9.94396 32.074 9.99301 31.9293 9.99931C31.7846 10.0056 31.6413 9.96886 31.5173 9.89368L29.164 8.45832L26.8159 9.89368C26.6918 9.96886 26.5485 10.0056 26.4038 9.99931C26.2591 9.99301 26.1194 9.94396 26.0023 9.85828C25.8852 9.77261 25.7958 9.65411 25.7452 9.51761C25.6947 9.3811 25.6853 9.23265 25.7182 9.09081L26.3393 6.3803L24.2624 4.55508C24.1525 4.4598 24.0731 4.33403 24.034 4.19353C23.995 4.05304 23.998 3.90407 24.0428 3.76532C24.0876 3.62656 24.1722 3.5042 24.2858 3.41356C24.3995 3.32293 24.5373 3.26807 24.6818 3.25585L27.4195 3.0174L28.4881 0.454129C28.5439 0.319629 28.6381 0.204741 28.7587 0.123931C28.8793 0.04312 29.021 0 29.1659 0C29.3108 0 29.4525 0.04312 29.5731 0.123931C29.6937 0.204741 29.7878 0.319629 29.8436 0.454129L30.9155 3.0174L33.6522 3.25585C33.7968 3.26807 33.9345 3.32293 34.0482 3.41356C34.1619 3.5042 34.2464 3.62656 34.2912 3.76532C34.336 3.90407 34.3391 4.05304 34.3 4.19353C34.261 4.33403 34.1815 4.4598 34.0717 4.55508H34.0694Z" fill="#1A1A1A"/>
<path d="M46.0762 4.55508L43.9997 6.37752L44.6217 9.09081C44.6547 9.23265 44.6453 9.3811 44.5947 9.51761C44.5442 9.65411 44.4548 9.77261 44.3377 9.85828C44.2205 9.94396 44.0809 9.99301 43.9362 9.99931C43.7915 10.0056 43.6481 9.96886 43.5241 9.89368L41.1709 8.45832L38.8227 9.89368C38.6987 9.96886 38.5553 10.0056 38.4106 9.99931C38.2659 9.99301 38.1263 9.94396 38.0092 9.85828C37.892 9.77261 37.8026 9.65411 37.7521 9.51761C37.7015 9.3811 37.6922 9.23265 37.7251 9.09081L38.3462 6.3803L36.2692 4.55508C36.1594 4.4598 36.0799 4.33403 36.0409 4.19353C36.0018 4.05304 36.0049 3.90407 36.0497 3.76532C36.0945 3.62656 36.179 3.5042 36.2927 3.41356C36.4064 3.32293 36.5441 3.26807 36.6887 3.25585L39.4263 3.0174L40.495 0.454129C40.5508 0.319629 40.6449 0.204741 40.7655 0.123931C40.8861 0.04312 41.0278 0 41.1727 0C41.3176 0 41.4593 0.04312 41.5799 0.123931C41.7005 0.204741 41.7947 0.319629 41.8505 0.454129L42.9223 3.0174L45.6591 3.25585C45.8036 3.26807 45.9414 3.32293 46.0551 3.41356C46.1687 3.5042 46.2533 3.62656 46.2981 3.76532C46.3429 3.90407 46.3459 4.05304 46.3069 4.19353C46.2678 4.33403 46.1884 4.4598 46.0785 4.55508H46.0762Z" fill="#1A1A1A"/>
<path d="M58.297 3.76378C58.2524 3.62552 58.1683 3.50351 58.0553 3.41294C57.9422 3.32238 57.8051 3.26726 57.6612 3.25446L54.9267 3.0174L53.8549 0.454129C53.799 0.319629 53.7049 0.204741 53.5843 0.123931C53.4637 0.04312 53.322 0 53.1771 0C53.0322 0 52.8905 0.04312 52.7699 0.123931C52.6493 0.204741 52.5552 0.319629 52.4994 0.454129L51.4307 3.0174L48.6931 3.25539C48.5484 3.26752 48.4105 3.32235 48.2967 3.41301C48.183 3.50367 48.0984 3.62612 48.0536 3.76497C48.0087 3.90382 48.0057 4.05289 48.0449 4.19346C48.084 4.33403 48.1636 4.45984 48.2736 4.55508L50.3506 6.3803L49.7281 9.09081C49.6952 9.23265 49.7046 9.3811 49.7551 9.51761C49.8056 9.65411 49.895 9.77261 50.0122 9.85828C50.1293 9.94396 50.2689 9.99301 50.4136 9.99931C50.5583 10.0056 50.7017 9.96886 50.8257 9.89368L53.1739 8.45832L55.5271 9.89368C55.6512 9.96886 55.7945 10.0056 55.9392 9.99931C56.0839 9.99301 56.2235 9.94396 56.3407 9.85828C56.4578 9.77261 56.5472 9.65411 56.5978 9.51761C56.6483 9.3811 56.6577 9.23265 56.6248 9.09081L56.0027 6.37752L58.0792 4.55508C58.1891 4.45947 58.2683 4.33334 58.3071 4.19255C58.3458 4.05175 58.3423 3.90258 58.297 3.76378ZM57.5962 3.99529L55.5197 5.81773C55.4187 5.90614 55.3435 6.02058 55.3023 6.14875C55.2611 6.27692 55.2554 6.41396 55.2858 6.54513L55.9097 9.26027L53.5583 7.82492C53.4436 7.75466 53.3119 7.7175 53.1776 7.7175V0.744904L54.2458 3.30447C54.2976 3.42886 54.3823 3.53665 54.4906 3.61621C54.5989 3.69576 54.7268 3.74407 54.8604 3.75591L57.5972 3.9939V3.99714L57.5962 3.99529Z" fill="#1A1A1A"/>
</svg>
