<svg width="323" height="155" viewBox="0 0 323 155" fill="none" xmlns="http://www.w3.org/2000/svg">
<g filter="url(#filter0_d_864_160)">
<path d="M275.866 31.8008H35.542V132.281H275.866V31.8008Z" fill="#FBF4EA"/>
<path d="M265.899 11.7588H45.4999C39.9954 11.7588 35.5342 16.2233 35.5342 21.7318V38.1614H275.858V21.7318C275.858 16.2233 271.397 11.7588 265.893 11.7588H265.899Z" fill="#B8B6E7"/>
<path d="M248.985 28.8926C251.155 28.8926 252.915 27.1318 252.915 24.9597C252.915 22.7877 251.155 21.0269 248.985 21.0269C246.814 21.0269 245.055 22.7877 245.055 24.9597C245.055 27.1318 246.814 28.8926 248.985 28.8926Z" fill="white" stroke="black" stroke-width="0.82" stroke-miterlimit="10"/>
<path d="M262.067 28.8926C264.237 28.8926 265.997 27.1318 265.997 24.9597C265.997 22.7877 264.237 21.0269 262.067 21.0269C259.896 21.0269 258.137 22.7877 258.137 24.9597C258.137 27.1318 259.896 28.8926 262.067 28.8926Z" fill="white" stroke="black" stroke-width="0.82" stroke-miterlimit="10"/>
<path d="M235.901 28.8926C238.071 28.8926 239.831 27.1318 239.831 24.9597C239.831 22.7877 238.071 21.0269 235.901 21.0269C233.73 21.0269 231.971 22.7877 231.971 24.9597C231.971 27.1318 233.73 28.8926 235.901 28.8926Z" fill="white" stroke="black" stroke-width="0.82" stroke-miterlimit="10"/>
<path d="M169.955 132.306L156.853 63.7246L154.133 57.2937C154.133 57.2937 146.778 49.7098 146.343 45.9243V44.7585C146.343 44.7585 142.977 48.6593 139.264 40.6079C139.264 40.6079 138.714 34.5805 142.778 34.9456L139.027 23.0702L144.935 10.2019C144.935 10.2019 173.764 9.68951 175.434 17.6833L177.879 25.2159C177.879 25.2159 182.097 26.939 181.297 33.2674C181.297 33.2674 182.174 35.2787 178.66 36.169C178.66 36.169 181.387 49.6265 176.394 53.5786L176.855 52.9765L181.399 58.0303L186.968 62.6805L195.494 100.446C195.494 100.446 188.946 119.854 189.035 120.809C189.125 121.763 182.577 132.216 182.577 132.216L169.949 132.312L169.955 132.306Z" fill="#FBF4EA"/>
<path d="M122.86 131.877L127.673 132.306H232.739C232.739 132.306 248.062 103.758 231.779 88.3277C215.496 72.8974 209.959 64.1926 186.399 62.5977L171.293 116.69L156.732 64.9036C156.732 64.9036 139.258 65.5569 117.662 86.3613C100.746 102.669 108.605 119.022 105.892 132.166" fill="#FF8049"/>
<path d="M122.86 131.877L127.673 132.306H232.739C232.739 132.306 248.062 103.758 231.779 88.3277C215.496 72.8974 209.959 64.1926 186.399 62.5977L171.293 116.69L156.732 64.9036C156.732 64.9036 139.258 65.5569 117.662 86.3613C100.746 102.669 108.605 119.022 105.892 132.166" stroke="black" stroke-miterlimit="10"/>
<path d="M185.797 62.8152V62.828C186.162 62.9625 186.526 63.1098 186.891 63.2636L186.974 62.6743C187 62.4885 186.93 62.3028 186.795 62.1747L178.404 54.4819C178.27 54.3602 178.071 54.2962 177.905 54.341C177.726 54.3794 177.572 54.5011 177.495 54.6677L169.514 72.4616L158.536 64.5318C158.428 64.455 158.3 64.4357 158.172 64.4229L156.168 64.519C156.002 64.5254 155.848 64.6087 155.746 64.7432C155.643 64.8777 155.605 65.0442 155.637 65.2108L155.695 65.499C156.143 65.7168 156.584 65.941 157.007 66.1972L156.891 65.6335L158.031 65.5759L169.417 73.8067C169.558 73.9028 169.738 73.9348 169.904 73.8964C170.07 73.8515 170.205 73.7362 170.275 73.5761L178.225 55.8655L185.809 62.8216L185.797 62.8152Z" fill="#1A1A1A"/>
<path d="M170.236 73.051C170.121 72.8525 169.897 72.7244 169.68 72.7692C169.456 72.7948 169.264 72.9486 169.193 73.1599L164.021 89.1283C164.278 89.7112 164.393 90.3389 164.521 90.9731L169.891 74.7292L178.621 89.7753C178.833 89.2693 178.948 88.7248 178.954 88.1675C178.954 88.1483 178.967 88.1291 178.986 88.1163L170.243 73.0446L170.236 73.051Z" fill="#1A1A1A"/>
<path d="M130.425 120.584C130.784 120.559 131.02 120.283 130.995 119.969C130.259 110.362 131.424 97.583 131.43 97.4549C131.456 97.141 131.225 96.8592 130.912 96.8335C130.572 96.8207 130.316 97.0385 130.291 97.3524C130.278 97.4805 129.107 110.355 129.855 120.059C129.881 120.36 130.131 120.591 130.425 120.591V120.584Z" fill="#1A1A1A"/>
<path d="M209.039 110.048C209.269 110.676 209.116 110.784 208.949 110.784L209.039 110.048Z" fill="#1A1A1A"/>
<path d="M249.99 93.5865L247.839 99.5818C247.839 99.5818 245.221 100.203 241.701 100.139C238.18 100.075 235.761 100.043 235.198 101.913C234.635 103.784 234.071 105.801 235.646 106.416C235.646 106.416 233.553 109.03 233.809 110.227C234.065 111.425 234.942 112.444 234.942 112.444C234.942 112.444 233.29 113.558 233.783 115.493C234.276 117.427 235.364 120.22 240.882 120.002C246.405 119.784 250.662 118.817 251.82 117.831C252.979 116.851 255.43 111.861 255.27 106.564C255.11 101.266 255.75 98.0958 249.983 93.5801L249.99 93.5865Z" fill="#FBF4EA"/>
<path d="M215.983 79.0977L195.514 138.308H234.487L240.779 120.104C239.71 119.919 238.66 119.566 237.809 119.233C235.94 118.497 233.655 117.017 233.885 114.698C234.007 113.501 234.673 112.802 235.601 112.444C234.884 112.04 234.295 111.496 233.988 110.721C232.925 108.043 235.69 106.858 237.828 106.602C236.446 106.282 235.172 105.577 235.018 103.989C234.807 101.804 237.099 100.504 238.923 100.145C241.208 99.7035 244.427 101.17 246.386 99.774C246.904 99.4025 247.436 99.3384 247.909 99.4665L254.95 79.0977H215.976H215.983Z" fill="white"/>
<path d="M251.519 79.0787L252.351 77.0482L213.563 76.7344L194.003 133.581H197.062L215.989 79.0787H251.519Z" fill="#CCCCCC"/>
<path d="M233.693 116.896C233.693 116.896 234.449 120.623 240.376 121.648L241.028 119.752C241.028 119.752 237.105 120.662 233.7 116.896H233.693Z" fill="#CCCCCC"/>
<path d="M233.713 114.449C233.713 114.449 239.851 118.279 249.586 113.469L239.755 113.738C239.755 113.738 235.454 113.11 234.935 112.444L233.713 114.449Z" fill="#CCCCCC"/>
<path d="M234.449 108.344C234.449 108.344 242.021 111.476 249.593 106.57L240.498 107.633C240.498 107.633 236.19 107.006 235.678 106.339L234.456 108.344H234.449Z" fill="#CCCCCC"/>
<path d="M240.632 120.066L236.778 132.14L243.192 132.159C243.192 132.159 247.57 123.941 248.511 119.304C248.511 119.304 242.865 120.405 240.632 120.072V120.066Z" fill="#FF8049"/>
<path d="M243.461 132.223C245.112 127.848 246.84 123.563 248.095 119.182C247.653 123.858 245.9 128.207 243.839 131.999C243.762 132.14 243.615 132.223 243.461 132.223Z" fill="#1A1A1A"/>
<path d="M242.712 120.495C241.567 120.495 240.357 120.425 239.109 120.277C236.465 119.976 232.714 118.074 233.054 114.961C233.175 113.904 233.783 113.001 234.731 112.488C234.443 113.622 233.995 114.282 233.911 115.051C233.623 117.67 237.221 119.188 239.211 119.419C245.829 120.181 250.207 118.753 251.59 116.991C252.62 115.672 253.395 113.936 253.958 111.688C254.822 108.223 255.065 104.527 254.656 100.991C254.227 97.3143 249.939 93.9515 249.9 93.9195C250.617 93.3814 255.04 96.8531 255.514 100.888C255.936 104.527 255.686 108.325 254.797 111.893C254.201 114.263 253.376 116.101 252.268 117.517C250.783 119.413 247.206 120.489 242.712 120.489V120.495Z" fill="#1A1A1A"/>
<path d="M239.397 107.678C238.917 107.678 238.533 107.659 238.264 107.621C236.99 107.454 235.537 107.262 234.903 106.237C234.167 105.058 233.995 103.694 234.423 102.496C234.775 101.504 235.531 100.69 236.67 100.075C237.649 99.5435 238.673 99.6076 239.666 99.6588C240.805 99.7037 241.246 99.7101 241.669 99.7101C248.908 99.7101 250.291 98.0895 250.303 98.0703C250.841 98.8005 249.222 100.748 240.312 100.549C238.699 100.466 237.841 100.415 237.08 100.825C236.139 101.337 235.518 101.997 235.236 102.778C234.897 103.726 235.044 104.815 235.64 105.776C236.056 106.448 237.265 106.609 238.065 106.717C240.261 107.038 248.46 106.147 249.183 105.872C248.678 106.993 242.367 107.672 239.403 107.672L239.397 107.678Z" fill="#1A1A1A"/>
<path d="M240.937 114.314C239.792 114.314 238.652 114.269 237.596 114.16C235.401 113.936 233.148 112.463 233.391 109.753C233.5 108.453 234.377 107.063 235.619 106.218C235.087 107.627 234.338 108.793 234.249 109.83C234.063 111.957 235.894 113.123 237.686 113.308C242.621 113.802 249.463 112.86 249.54 112.847C249.604 113.712 245.258 114.32 240.944 114.32L240.937 114.314Z" fill="#1A1A1A"/>
<path d="M234.474 138.757H195.501C195.104 138.161 215.573 78.9505 215.573 78.9505C215.989 78.6494 254.956 78.6494 254.956 78.6494C255.353 79.2451 248.114 100.19 248.114 100.19C247.301 99.9022 254.342 79.5462 254.342 79.5462H216.277L196.115 137.86H234.18L239.703 121.885C240.516 122.18 234.89 138.456 234.89 138.456C234.826 138.635 234.66 138.757 234.474 138.757Z" fill="#1A1A1A"/>
<path d="M197.313 134.023H194.003C193.594 133.453 213.084 76.5934 213.084 76.5934C213.493 76.3052 252.467 76.3052 252.467 76.3052C252.876 76.8752 252.23 78.752 252.23 78.752C251.411 78.4702 251.859 77.1699 251.859 77.1699H213.794L194.605 133.165H197.313C197.741 133.838 197.549 134.03 197.313 134.03V134.023Z" fill="#1A1A1A"/>
<path d="M246.225 83.6775C247.23 83.1715 249.067 81.205 249.841 78.4892C250.622 75.7734 250.117 73.1472 248.741 72.7501C247.441 72.385 245.79 74.0247 244.926 76.4843C245.137 73.2625 247.23 71.4178 248.977 71.9238C250.866 72.4682 251.614 75.4595 250.674 78.7326C249.829 81.6662 247.966 83.6839 246.225 83.6839V83.6775Z" fill="#1A1A1A"/>
<path d="M234.283 83.6775C235.294 83.1651 237.125 81.205 237.899 78.4892C238.68 75.7734 238.174 73.1472 236.798 72.7501C235.492 72.385 233.847 74.0247 232.983 76.4843C233.195 73.2625 235.281 71.4178 237.029 71.9238C238.923 72.4682 239.666 75.4595 238.725 78.7326C237.88 81.6598 236.017 83.6839 234.276 83.6839L234.283 83.6775Z" fill="#1A1A1A"/>
<path d="M222.243 83.6775C223.255 83.1651 225.085 81.205 225.86 78.4892C226.256 77.1121 226.34 75.7349 226.09 74.6204C225.86 73.5956 225.386 72.9294 224.752 72.7501C223.447 72.385 221.802 74.0247 220.938 76.4843C221.155 73.2625 223.242 71.4178 224.989 71.9238C225.936 72.1992 226.628 73.0895 226.928 74.4346C227.21 75.6901 227.121 77.2145 226.685 78.7326C225.84 81.6598 223.978 83.6839 222.237 83.6839L222.243 83.6775Z" fill="#1A1A1A"/>
<path d="M245.322 88.8467H220.539C220.539 87.9819 245.322 87.9819 245.322 87.9819C245.751 88.6545 245.559 88.8467 245.322 88.8467Z" fill="#1A1A1A"/>
<path d="M243.096 95.4697H218.312C218.312 94.605 243.096 94.605 243.096 94.605C243.531 95.2775 243.333 95.4697 243.096 95.4697Z" fill="#1A1A1A"/>
<path d="M234.941 107.826H214.036C214.036 106.961 234.941 106.961 234.941 106.961C235.369 107.633 235.177 107.826 234.941 107.826Z" fill="#1A1A1A"/>
<path d="M235.492 101.958H216.027C216.027 101.093 235.492 101.093 235.492 101.093C235.927 101.766 235.728 101.958 235.492 101.958Z" fill="#1A1A1A"/>
<path d="M233.802 114.314H211.848C211.848 113.449 233.802 113.449 233.802 113.449C234.231 114.122 234.039 114.314 233.802 114.314Z" fill="#1A1A1A"/>
<path d="M234.448 120.803H209.665C209.665 119.938 234.448 119.938 234.448 119.938C234.883 120.611 234.685 120.803 234.448 120.803Z" fill="#1A1A1A"/>
<path d="M4 132.281H128.358" stroke="#FBF4EA" stroke-miterlimit="10"/>
<path d="M73 132.281H197.358" stroke="#FBF4EA" stroke-miterlimit="10"/>
<path d="M140.962 34.6321C140.962 34.6321 131.028 13.8405 139.778 10.6187C139.778 10.6187 141.845 2.95151 151.612 1.30535C161.373 -0.34081 167.819 1.13241 172.952 8.81236C178.085 16.4859 177.74 24.6975 177.74 24.6975L175.506 25.6583L174.149 20.6686L169.777 13.674C169.777 13.674 163.005 18.9135 155.894 19.6886C148.783 20.4636 142.287 18.2153 142.287 18.2153C142.287 18.2153 143.138 27.0867 141.954 29.2773L142.882 34.6577L140.962 34.6385V34.6321Z" fill="#B8B6E7" stroke="#231F20" stroke-width="0.82" stroke-miterlimit="10"/>
<path d="M164.682 36.6621C163.126 36.0024 162.102 35.8166 161.27 36.1369C160.131 36.534 159.638 37.6421 159.632 37.6549C158.665 37.1681 159.318 35.6821 160.899 35.1184C162.064 34.7149 163.357 34.8943 164.797 35.6629C164.944 36.5276 164.823 36.6173 164.688 36.6557L164.682 36.6621Z" fill="#1A1A1A"/>
<path d="M180.203 36.4638C179.729 36.5919 179.198 36.4894 178.66 36.1692C179.147 35.4838 179.652 35.5479 180.068 35.3749C180.696 35.1187 181.131 34.3693 181.297 33.2676C181.457 32.1723 181.329 30.8528 180.932 29.5589C180.536 28.2586 179.921 27.1441 179.198 26.4139C178.475 25.6773 177.726 25.4339 177.098 25.6773C176.83 25.7926 176.599 25.9911 176.401 26.273C176.177 25.0239 176.458 24.7805 176.785 24.646C177.546 24.3514 178.443 24.646 179.326 25.5364C180.203 26.4267 180.952 27.7782 181.432 29.3475C181.912 30.9168 182.072 32.5181 181.873 33.844C181.675 35.1763 181.15 36.0859 180.388 36.3998C180.324 36.4254 180.267 36.4446 180.203 36.4638Z" fill="#1A1A1A"/>
<path d="M144.756 45.8796C142.381 46.2959 140.026 43.9003 139.264 40.5952C138.509 37.2965 139.629 34.3308 141.754 33.9465C142.196 33.8696 142.656 33.9145 143.117 34.0682C142.74 34.9713 142.362 34.9393 141.997 34.997C140.218 35.2788 139.315 37.7576 139.943 40.4799C140.57 43.2021 142.509 45.1814 144.269 44.8803C144.858 44.7714 145.364 44.4448 145.754 43.8939C145.895 45.3223 145.357 45.713 144.756 45.8732V45.8796Z" fill="#1A1A1A"/>
<path d="M166.634 58.5558C150.415 62.9818 147.541 52.4259 142.779 34.9394L141.333 29.6359C141.966 28.2523 142.139 22.3787 142.114 18.702C140.353 17.7797 139.445 16.8829 139.419 16.8573C140.264 16.1783 148.213 23.9608 163.786 16.3C164.97 15.7172 169.393 13.3984 169.393 13.3984C170.136 13.6546 173.323 19.0543 174.482 20.3418C174.597 20.5403 176.459 26.4204 176.459 26.4204C180.959 42.9397 183.929 53.8351 166.641 58.5494L166.634 58.5558ZM142.421 29.5462L143.81 34.6512C148.553 52.0608 151.164 61.6559 166.346 57.5117C182.591 53.0792 180.044 43.7211 175.41 26.7215L173.592 20.9695C172.51 19.7141 170.212 15.8965 169.425 14.5834C168.267 15.1919 165.207 16.7868 164.253 17.2608C154.23 22.1993 147.151 20.9311 143.189 19.208C143.195 21.7189 143.138 27.7911 142.421 29.5398V29.5462Z" fill="#1A1A1A"/>
<path d="M174.147 20.6619L175.504 25.6516L177.738 24.6908C177.738 24.6908 178.083 16.4856 172.95 8.80565C169.212 3.22023 164.776 0.927137 158.869 0.722168C160.891 1.70858 168.124 5.603 166.626 10.1508C164.892 15.4031 146.893 19.2719 146.771 19.2975C149.242 19.7331 152.487 20.0534 155.886 19.6818C163.003 18.9068 169.769 13.6673 169.769 13.6673L174.141 20.6619H174.147Z" fill="#FBF4EA"/>
<path d="M169.84 50.1134C169.29 50.2607 168.669 50.3248 167.978 50.2863C169.283 49.2743 170.231 48.9796 170.832 48.3263C171.856 47.231 171.658 45.4567 171.658 45.4375C172.74 45.3991 172.989 47.5897 171.626 49.0565C171.152 49.5625 170.557 49.9148 169.84 50.1134Z" fill="#1A1A1A"/>
<path d="M155.004 58.0239L158.025 65.5758" stroke="black" stroke-miterlimit="10"/>
<path d="M176.855 52.2656L178.283 55.3338" stroke="black" stroke-miterlimit="10"/>
<path d="M177.88 25.2097C176.971 13.2382 171.659 7.73607 169.387 5.38532C163.959 -0.238528 153.974 0.177816 146.927 3.50857C142.043 5.80807 140.302 10.7466 140.289 10.7978C139.189 11.5344 138.504 12.1365 137.864 13.0076C135.675 15.9861 136.84 19.8805 136.852 19.9189C138.043 24.4347 141.467 34.4461 141.499 34.5422C140.443 34.792 137.012 24.7421 135.822 20.2136C135.771 20.0599 134.478 15.7939 137 12.3671C137.691 11.4191 138.446 10.7401 139.349 10.2405C139.739 9.21569 141.691 4.77682 146.472 2.52856C153.878 -0.962326 164.381 -1.34664 170.168 4.6359C173.835 8.43424 178.066 14.1478 178.284 24.6781C178.284 24.9279 178.117 25.1457 177.887 25.2097H177.88Z" fill="#1A1A1A"/>
<path d="M167.83 41.3636C167.401 40.8768 166.979 40.3708 166.569 39.8584C166.569 40.5438 166.575 41.1843 166.588 41.7672C166.614 42.8753 166.633 43.8297 166.294 44.5215C165.455 44.957 163.145 44.4126 161.468 45.1428C161.852 45.2773 165.276 46.4559 166.863 45.6296C167.28 45.4118 167.568 45.0659 167.689 44.6368C167.875 43.9834 167.849 42.9906 167.824 41.7352C167.824 41.6135 167.824 41.4853 167.817 41.3636H167.83Z" fill="#1A1A1A"/>
<path d="M115.352 132.441C115.352 132.441 122.936 121.904 133.491 120.476C144.046 119.041 149.582 120.745 152.117 123.774C154.651 126.804 155.515 129.718 155.483 136.815C155.445 143.913 152.987 145.238 151.797 145.501C150.606 145.77 148.622 144.643 148.488 141.523C148.488 141.523 147.035 146.334 144.577 146.417C142.125 146.5 141.255 141.126 141.255 141.126C141.255 141.126 140.468 145.437 138.547 145.571C136.627 145.706 134.304 142.388 133.574 138.936C132.844 135.49 131.584 131.871 131.584 131.871L115.352 132.441Z" fill="#FBF4EA"/>
<path d="M115.351 132.21C115.531 132.21 115.71 132.127 115.825 131.96C115.895 131.858 123.218 121.468 137.152 120.29C145.498 119.592 150.657 121.443 153.358 126.151C153.915 127.118 154.357 128.489 154.638 130.109C154.69 130.417 154.978 130.622 155.304 130.577C155.618 130.519 155.822 130.224 155.771 129.911C155.464 128.136 154.984 126.676 154.357 125.581C151.412 120.443 145.914 118.4 137.062 119.15C122.578 120.379 114.967 131.204 114.89 131.313C114.711 131.576 114.775 131.928 115.038 132.108C115.134 132.178 115.249 132.21 115.364 132.21H115.351Z" fill="#1A1A1A"/>
<path d="M144.5 146.993C145.05 146.993 145.607 146.827 146.132 146.5C147.015 145.949 147.892 144.86 148.385 143.221C148.724 144.162 149.204 145.046 149.883 145.578C150.478 146.045 151.163 146.212 151.905 146.071C155.624 145.386 156.795 136.085 155.771 130.154C155.72 129.846 155.445 129.635 155.106 129.686C154.798 129.744 154.587 130.039 154.638 130.352C155.739 136.713 154.171 144.489 151.694 144.95C151.278 145.027 150.919 144.944 150.593 144.681C149.364 143.714 148.878 140.748 148.769 139.429C148.769 139.352 148.756 139.275 148.75 139.192C148.724 138.878 148.442 138.622 148.142 138.666C147.828 138.686 147.591 138.961 147.61 139.269C147.61 139.288 147.61 139.358 147.623 139.461C147.847 142.83 146.65 144.835 145.537 145.533C144.916 145.917 144.269 145.956 143.706 145.629C142.17 144.732 141.837 141.722 141.837 140.633C141.837 140.319 141.587 140.069 141.274 140.063C140.954 140.063 140.704 140.306 140.691 140.614C140.653 141.703 140.23 144.604 138.714 144.982C138.4 145.059 137.997 144.963 137.568 144.7C136.87 144.265 134.47 142.285 132.902 135.022C131.5 128.54 130.726 127.015 130.694 126.958C130.546 126.676 130.201 126.573 129.919 126.714C129.644 126.862 129.535 127.201 129.676 127.483C129.682 127.496 130.438 129.027 131.782 135.265C132.921 140.537 134.809 144.335 136.96 145.674C137.657 146.109 138.355 146.257 138.989 146.097C140.096 145.821 140.768 144.867 141.184 143.836C141.53 144.937 142.125 146.033 143.13 146.622C143.565 146.878 144.032 147 144.512 147L144.5 146.993Z" fill="#1A1A1A"/>
<path d="M141.255 141.197C141.639 141.152 141.863 140.87 141.824 140.556C141.811 140.467 140.762 131.736 139.75 126.305C139.693 125.997 139.405 125.786 139.085 125.843C138.771 125.901 138.566 126.202 138.624 126.51C139.629 131.909 140.672 140.601 140.685 140.691C140.723 140.979 140.967 141.197 141.255 141.197Z" fill="#1A1A1A"/>
<path d="M148.206 140.614C148.59 140.569 148.814 140.287 148.775 139.973C148.763 139.884 147.713 131.153 146.702 125.722C146.644 125.414 146.337 125.203 146.036 125.26C145.722 125.318 145.518 125.619 145.575 125.927C146.58 131.326 147.623 140.018 147.636 140.108C147.675 140.396 147.918 140.614 148.206 140.614Z" fill="#1A1A1A"/>
<path d="M130.138 104.36L137.761 100.754L130.656 105.289L130.138 104.36Z" fill="black"/>
<path d="M154.898 46.6584C157.976 45.9284 159.687 42.0188 158.718 37.9259C157.748 33.8331 154.467 31.107 151.389 31.837C148.31 32.5669 146.6 36.4766 147.569 40.5694C148.538 44.6622 151.819 47.3884 154.898 46.6584Z" fill="white"/>
<path d="M172.423 41.884C175.502 41.154 177.212 37.2443 176.243 33.1515C175.274 29.0587 171.993 26.3326 168.914 27.0625C165.836 27.7925 164.125 31.7022 165.094 35.795C166.064 39.8878 169.345 42.6139 172.423 41.884Z" fill="white"/>
<path d="M155.349 47.3591C151.803 48.3263 147.931 45.4759 146.715 41.0114C145.499 36.5469 147.393 32.1209 150.939 31.1537C154.485 30.1865 158.364 33.0304 159.58 37.5013C160.796 41.9658 158.902 46.3919 155.356 47.3591H155.349ZM151.221 32.1977C148.245 33.0112 146.689 36.8416 147.752 40.7296C148.814 44.624 152.098 47.1285 155.068 46.3214C158.038 45.5143 159.599 41.684 158.537 37.7895C157.474 33.8951 154.191 31.3843 151.221 32.1977Z" fill="#1A1A1A"/>
<path d="M172.873 42.5807C169.327 43.5479 165.455 40.6976 164.238 36.2331C163.022 31.7686 164.917 27.3425 168.463 26.3753C172.009 25.4081 175.888 28.2521 177.104 32.723C178.32 37.1875 176.425 41.6135 172.873 42.5807ZM168.744 27.4194C165.768 28.2329 164.219 32.0568 165.275 35.9513C166.338 39.8457 169.615 42.3501 172.591 41.5431C175.568 40.7296 177.123 36.9056 176.06 33.0112C174.998 29.1168 171.721 26.6059 168.744 27.4194Z" fill="#1A1A1A"/>
<path d="M236.771 132.14H319" stroke="#FBF4EA" stroke-miterlimit="10"/>
</g>
<defs>
<filter id="filter0_d_864_160" x="0" y="0" width="323" height="155" filterUnits="userSpaceOnUse" color-interpolation-filters="sRGB">
<feFlood flood-opacity="0" result="BackgroundImageFix"/>
<feColorMatrix in="SourceAlpha" type="matrix" values="0 0 0 0 0 0 0 0 0 0 0 0 0 0 0 0 0 0 127 0" result="hardAlpha"/>
<feOffset dy="4"/>
<feGaussianBlur stdDeviation="2"/>
<feComposite in2="hardAlpha" operator="out"/>
<feColorMatrix type="matrix" values="0 0 0 0 0 0 0 0 0 0 0 0 0 0 0 0 0 0 0.25 0"/>
<feBlend mode="normal" in2="BackgroundImageFix" result="effect1_dropShadow_864_160"/>
<feBlend mode="normal" in="SourceGraphic" in2="effect1_dropShadow_864_160" result="shape"/>
</filter>
</defs>
</svg>
