<svg width="235" height="182" viewBox="0 0 235 182" fill="none" xmlns="http://www.w3.org/2000/svg">
<g clip-path="url(#clip0_780_1492)">
<path d="M158.648 29.5519V11.7639C158.648 5.65459 153.703 0.710327 147.602 0.710327H11.7552C5.65389 0.710327 0.708984 5.66169 0.708984 11.7639V29.5519V120.168C0.708984 127.982 7.09408 134.376 14.8981 134.376H144.459C152.263 134.376 158.648 127.982 158.648 120.168V29.559V29.5519Z" stroke="#1A1A1A" stroke-width="2" stroke-miterlimit="10"/>
<path d="M144.459 14.6694H14.8981C7.06166 14.6694 0.708984 21.0304 0.708984 28.8771V119.493C0.708984 127.34 7.06166 133.701 14.8981 133.701H144.459C152.295 133.701 158.648 127.34 158.648 119.493V28.8771C158.648 21.0304 152.295 14.6694 144.459 14.6694Z" fill="white"/>
<path d="M147.609 0.0284661H11.7552C5.65389 0.0284661 0.708984 4.97983 0.708984 11.082V29.3033H158.648V11.082C158.648 4.97273 153.703 0.0213623 147.602 0.0213623L147.609 0.0284661Z" fill="#B8B6E7"/>
<path d="M128.858 19.0311C131.264 19.0311 133.214 17.0783 133.214 14.6694C133.214 12.2604 131.264 10.3076 128.858 10.3076C126.452 10.3076 124.502 12.2604 124.502 14.6694C124.502 17.0783 126.452 19.0311 128.858 19.0311Z" fill="white" stroke="black" stroke-width="0.82" stroke-miterlimit="10"/>
<path d="M143.36 19.0311C145.766 19.0311 147.716 17.0783 147.716 14.6694C147.716 12.2604 145.766 10.3076 143.36 10.3076C140.954 10.3076 139.004 12.2604 139.004 14.6694C139.004 17.0783 140.954 19.0311 143.36 19.0311Z" fill="white" stroke="black" stroke-width="0.82" stroke-miterlimit="10"/>
<path d="M114.35 19.0311C116.756 19.0311 118.706 17.0783 118.706 14.6694C118.706 12.2604 116.756 10.3076 114.35 10.3076C111.944 10.3076 109.994 12.2604 109.994 14.6694C109.994 17.0783 111.944 19.0311 114.35 19.0311Z" fill="white" stroke="black" stroke-width="0.82" stroke-miterlimit="10"/>
<path d="M167.97 156.455C168.226 157.151 168.056 157.272 167.871 157.272L167.97 156.455Z" fill="#1A1A1A"/>
<path d="M39.9568 56.1131H21.6244C20.9434 55.4311 20.9434 37.0677 20.9434 37.0677C21.6244 36.3857 39.9639 36.3857 39.9639 36.3857C40.6449 37.0677 40.6449 55.4311 40.6449 55.4311C40.6449 55.8076 40.3399 56.1131 39.9639 56.1131H39.9568ZM22.3055 54.7491H39.2828V37.7497H22.3055V54.7491Z" fill="#1A1A1A"/>
<path d="M39.9568 83.5694H21.6244C20.9434 82.8874 20.9434 64.524 20.9434 64.524C21.6244 63.842 39.9639 63.842 39.9639 63.842C40.6449 64.524 40.6449 82.8874 40.6449 82.8874C40.6449 83.2639 40.3399 83.5694 39.9639 83.5694H39.9568ZM22.3055 82.2054H39.2828V65.206H22.3055V82.2054Z" fill="#1A1A1A"/>
<path d="M39.9568 111.033H21.6244C20.9434 110.351 20.9434 91.9874 20.9434 91.9874C21.6244 91.3054 39.9639 91.3054 39.9639 91.3054C40.6449 91.9874 40.6449 110.351 40.6449 110.351C40.6449 110.727 40.3399 111.033 39.9639 111.033H39.9568ZM22.3055 109.669H39.2828V92.6694H22.3055V109.669Z" fill="#1A1A1A"/>
<path d="M39.956 118.769C39.956 118.769 21.6237 118.769 20.9355 119.451C20.9355 119.451 20.9355 128.359 21.1697 133.999C21.5386 133.914 21.9217 133.872 22.3048 133.843V120.133H39.2821V133.921C39.7077 133.758 40.1831 133.708 40.6229 133.8C40.5804 128.359 40.4385 119.252 39.956 118.769Z" fill="#1A1A1A"/>
<path d="M157.748 103.439L159.621 84.8835C159.621 84.8835 167.495 84.4644 167.495 78.0568C167.495 71.6491 160.919 71.1589 159.103 71.3579C159.103 71.3579 157.315 63.6431 154.562 61.1426C151.802 58.642 147.546 58.912 144.786 58.3081C142.019 57.7043 135.811 55.5447 133.442 53.918C133.442 53.918 127.518 60.7803 126.141 67.4863C124.701 74.5333 128.915 74.6682 128.724 76.3163C127.986 82.8021 127.149 91.9376 132.328 93.4223C137.507 94.8999 138.479 95.0136 138.479 95.0136L137.535 103.105C137.535 103.105 131.753 120.502 138.869 120.566C145.985 120.637 152.228 113.903 154.562 109.96C156.896 106.017 157.748 103.439 157.748 103.439Z" fill="#FBF4EA"/>
<path d="M128.291 85.4732C128.291 85.4732 122.537 87.0005 121.175 94.154C119.813 101.308 124.701 105.584 124.701 105.584C124.701 105.584 133.044 103.005 137.67 103.673L138.479 95.0065C138.479 95.0065 128.348 95.4754 128.291 85.4661V85.4732Z" fill="#FF8049"/>
<path d="M158.187 103.439C158.187 103.439 163.657 102.629 170.113 105.208C176.576 107.786 182.457 109.491 182.457 109.491C182.457 109.491 190.396 105.137 189.786 97.6705C189.183 90.2115 183.174 85.5159 179.485 85.0044C175.795 84.4929 172.525 84.8765 172.525 84.8765C172.525 84.8765 171.184 80.5716 175.427 74.6257C179.676 68.6798 180.719 62.4853 179.016 57.9388C177.314 53.3924 170.765 47.2262 162.287 46.3667L160.968 45.6563C160.968 45.6563 154.058 38.3465 145.211 37.7853C136.364 37.217 127.652 40.9749 124.353 47.2689C121.054 53.5558 124.814 62.8191 126.02 65.3765C126.02 65.3765 128.312 61.5547 128.936 60.212C129.347 59.3312 132.285 57.4558 132.285 57.4558L133.448 53.9252C133.448 53.9252 137.861 57.6831 143.693 58.1093C149.524 58.5355 152.894 59.1252 155.512 62.6344C158.13 66.1437 158.414 71.6421 158.414 71.6421C158.414 71.6421 160.634 70.47 163.38 72.0896C166.126 73.7093 167.644 76.0465 167.247 79.0656C166.849 82.0776 163.337 85.2459 159.173 84.7131L158.187 103.453V103.439Z" fill="#FF8049"/>
<path d="M133.824 46.9137C133.171 43.4399 134.349 40.7546 135.938 38.7798C130.781 40.2645 126.46 43.241 124.353 47.2618C121.054 53.5486 124.814 62.812 126.02 65.3694C126.02 65.3694 128.312 61.5475 128.936 60.2049C129.347 59.324 132.285 57.4486 132.285 57.4486L133.448 53.918C133.448 53.918 137.854 57.676 143.693 58.1022C147.361 58.365 150.049 58.706 152.192 59.7858C152.731 59.6082 135.399 55.2891 133.824 46.9137Z" fill="#FBF4EA"/>
<path d="M128.802 88.8973C128.489 87.917 128.305 86.7946 128.298 85.4733C128.298 85.4733 122.544 87.0006 121.182 94.1541C119.82 101.308 124.708 105.584 124.708 105.584C124.708 105.584 127.915 104.831 129.717 104.398C123.53 97.6776 126.78 90.9787 128.809 88.8902L128.802 88.8973Z" fill="#FBF4EA"/>
<path d="M132.278 57.9246C131.803 57.8394 131.576 57.4984 131.654 57.1503C132.314 54.0957 132.335 54.0317 132.349 53.9962C133.541 54.4722 133.335 55.4312 132.902 57.4274C132.839 57.7257 132.576 57.9317 132.278 57.9317V57.9246Z" fill="#1A1A1A"/>
<path d="M141.969 95.6743C140.699 95.6743 139.45 95.6459 138.429 95.6033C136.981 95.5394 134.825 95.3547 132.881 94.4525C130.313 93.2591 128.759 91.0498 128.113 87.6967C127.375 83.8252 127.567 80.3159 128.092 76.2383C128.858 80.3585 128.667 83.7541 129.376 87.4552C129.937 90.3749 131.256 92.2858 133.427 93.2875C134.747 93.9055 136.357 94.2323 138.493 94.3246C140.6 94.417 143.707 94.4312 145.892 94.282C144.807 95.6388 143.381 95.6743 141.976 95.6743H141.969Z" fill="#1A1A1A"/>
<path d="M160.664 85.3453C158.862 85.2388 157.584 84.7983 156.499 84.0382C158.124 83.6049 159.174 83.9743 160.273 84.0453C163.551 84.3011 166.46 81.7366 166.673 78.4191C166.779 76.8136 166.247 75.265 165.19 74.0503C164.126 72.8426 162.657 72.1109 161.054 72.0115C159.841 71.9333 158.67 72.2104 157.627 72.8142C158.244 70.9743 159.67 70.6404 161.139 70.7257C163.083 70.8535 164.864 71.7344 166.155 73.1978C167.439 74.6612 168.077 76.5437 167.957 78.4972C167.701 82.3617 164.48 85.3382 160.671 85.3382L160.664 85.3453Z" fill="#1A1A1A"/>
<path d="M161.684 82.2126C161.23 82.0279 157.215 78 157.215 78C157.357 76.9842 162.749 73.9722 162.749 73.9722C163.373 75.0875 158.719 77.6946 158.719 77.6946L162.138 81.1186C162.011 82.1487 161.848 82.2126 161.684 82.2126Z" fill="#1A1A1A"/>
<path d="M140.124 121.127C139.472 121.127 138.798 121.092 138.103 121.014C136.513 120.843 135.35 120.111 134.64 118.854C132.136 114.4 136.485 104.519 137.031 103.304L137.656 94.9568C138.933 95.0562 138.294 103.51 138.294 103.51C138.188 103.837 133.456 114.144 135.747 118.215C136.251 119.103 137.067 119.6 138.237 119.735C152.966 121.298 157.073 103.467 157.116 103.29C158.329 103.751 154.328 121.12 140.117 121.12L140.124 121.127Z" fill="#1A1A1A"/>
<path d="M140.352 85.3382C139.557 85.3382 138.706 85.1464 137.798 84.7628C139.671 84.159 140.841 84.2016 141.785 83.7186C143.374 82.9016 143.85 80.8415 143.857 80.8202C145.077 81.2109 144.481 83.7612 142.367 84.8552C141.75 85.1748 141.076 85.3382 140.352 85.3382Z" fill="#1A1A1A"/>
<path d="M157.748 104.078C157.109 103.382 158.784 84.8197 158.784 84.8197C160.061 84.9334 158.386 103.496 158.386 103.496C158.358 103.83 158.074 104.078 157.748 104.078Z" fill="#1A1A1A"/>
<path d="M172.107 85.3027C171.291 80.3372 173.32 76.9273 175.278 73.6312C177.612 69.7028 180.025 65.6465 178.868 59.8C176.804 49.3077 161.621 46.8924 161.465 46.8711C155.428 41.0033 148.511 37.9913 141.664 38.2825C135.613 38.517 130.072 41.2306 126.063 45.9262C121.097 51.7372 124.496 60.9153 126.964 65.8667C122.63 60.0415 119.92 51.1476 125.091 45.0951C129.334 40.1295 135.201 37.2596 141.615 37.0038C148.731 36.741 155.96 39.7885 161.87 45.6421C163.856 45.9831 177.996 48.7536 180.124 59.5585C181.373 65.888 178.833 70.1574 176.378 74.2918C174.427 77.5738 172.59 80.6711 172.746 84.6492C172.121 85.317 172.114 85.317 172.107 85.317V85.3027Z" fill="#1A1A1A"/>
<path d="M181.812 110.131C185.346 107.438 188.247 103.929 188.978 99.9579C189.843 95.2197 187.524 90.1404 183.203 87.3273C179.23 84.7486 173.845 84.4289 168.794 86.4535C173.76 83.0792 179.585 83.4486 183.898 86.2546C188.652 89.3448 191.191 94.9426 190.241 100.185C189.432 104.59 186.218 108.475 182.054 110.088C181.976 110.116 181.898 110.131 181.82 110.131H181.812Z" fill="#1A1A1A"/>
<path d="M125.07 106.458C120.479 104.064 119.387 96.882 121.097 91.888C122.87 86.6738 128.021 84.8907 128.234 84.8197C128.596 86.0487 123.878 87.6967 122.303 92.3C120.6 97.2869 122.069 103.467 125.375 105.257C125.517 106.337 125.297 106.458 125.07 106.458Z" fill="#1A1A1A"/>
<path d="M158.783 72.2672C158.01 71.3153 157.853 70.6688 157.683 69.9442C157.222 68.0049 156.591 65.3481 155.136 63.2027C153.434 60.7022 150.958 59.4022 147.588 59.2459C137.911 58.777 130.674 52.8027 130.369 52.547C131.263 51.6235 138.407 57.5196 147.651 57.9672C151.397 58.1448 154.271 59.665 156.193 62.4852C157.79 64.8224 158.449 67.6142 158.932 69.653C159.095 70.3421 159.237 70.953 159.393 71.436C158.918 72.2601 158.847 72.2743 158.783 72.2743V72.2672Z" fill="#1A1A1A"/>
<path d="M210.737 109.314C197.193 107.374 195.661 107.701 194.582 110.621L190.34 123.571C190.34 123.571 186.417 110.457 175.377 106.202C164.331 101.94 158.273 103.204 158.273 103.204C158.273 103.204 161.55 100.938 161.125 98.0683C160.897 96.541 159.457 95.1842 158.152 94.2465C157.166 96.0082 155.818 97.564 154.378 98.9705C154.378 98.9705 154.363 98.9776 154.356 98.9847C154.229 99.2902 154.073 99.5814 153.867 99.8301C152.512 101.478 149.88 101.464 147.95 101.393C145.786 101.315 142.523 101.407 140.692 100.178C139.245 99.2049 139.131 97.4858 139.224 95.8093C138.301 95.2623 137.088 95.1415 136.095 94.7935C136.003 94.7579 135.918 94.7082 135.84 94.6514C134.704 95.4399 133.484 96.6618 133.349 98.3169C133.087 101.485 135.605 103.219 135.605 103.219C135.605 103.219 125.9 102.721 120.267 105.3C114.634 107.879 106.83 110.976 102.658 123.585C98.4867 136.187 98.0823 150.509 98.0823 150.509L79.1186 155.325C79.1186 155.325 73.7551 158.579 74.5781 160.632L78.2176 180.792C90.8742 180.778 103.517 180.885 116.173 180.991C116.372 180.991 116.549 181.027 116.72 181.062C117.018 180.942 117.358 180.871 117.741 180.906C121.43 181.197 125.127 181.46 128.823 181.702C129.156 181.126 129.724 180.686 130.391 180.686H135.4C135.669 180.686 135.932 180.721 136.18 180.792C150.589 182.149 165.055 181.396 179.507 181.283C179.024 176.899 178.173 167.814 178.825 163.558C178.825 163.558 180.308 176.75 189.176 180.863C193.362 180.821 197.782 181.105 201.954 180.693C202.621 180.629 202.904 180.416 203.28 180.764C207.743 178.583 210.957 174.257 213.206 168.929C217.072 159.772 219.364 143.05 220.158 138.049C220.96 133.04 223.741 115.046 223.741 115.046C223.741 115.046 224.28 111.253 210.737 109.314Z" fill="#B8B6E7" stroke="#231F20" stroke-width="0.82" stroke-miterlimit="10"/>
<path d="M199.542 114.166C199.542 114.166 202.635 107.154 202.309 105.57C201.982 103.986 198.889 100.491 197.364 99.1978C195.831 97.9049 195.817 95.3262 197.364 94.4595C198.91 93.5928 201.344 94.4666 203.685 96.5054C206.026 98.5442 208.935 101.691 209.992 101.649C209.992 101.649 218.044 95.5677 221.471 94.6868C224.898 93.806 226.508 93.6213 227.374 95.042C227.374 95.042 230.226 95.1912 230.878 97.2087C230.878 97.2087 233.312 96.7114 234.184 98.189C235.057 99.6666 233.858 102.529 231.02 104.519C228.182 106.508 223.841 109.029 220.669 109.854C217.505 110.678 216.249 117.781 216.249 117.781C216.249 117.781 205.622 117.426 199.535 114.166H199.542Z" fill="#FBF4EA"/>
<path d="M97.7341 157.328L95.6909 149.791C95.6909 149.791 98.777 146.019 96.9892 138.574C95.2013 131.122 90.2564 132.685 90.2564 132.685C90.2564 132.685 87.2271 125.29 86.3473 121.369C85.4676 117.448 82.9774 112.709 79.7068 113.349C76.4362 113.988 75.9751 119.216 76.9542 123.308C77.9332 127.4 80.0899 133.346 80.0899 133.346C80.0899 133.346 76.3937 130.142 75.0031 130.249C73.6126 130.355 70.7677 131.513 70.0157 133.261C69.2637 135.015 69.0082 136.784 69.0082 136.784C69.0082 136.784 66.2343 138.283 66.1491 141.082C66.064 143.874 68.0008 146.843 75.365 151.326C75.365 151.326 76.5285 155.062 80.5724 155.588L81.6578 162.195C81.6578 162.195 86.4538 161.754 90.2564 160.397C94.0591 159.04 97.7341 157.328 97.7341 157.328Z" fill="#FBF4EA"/>
<path d="M78.6643 155.311L80.3386 155.688L81.942 162.301C81.942 162.301 74.9609 162.514 74.5707 160.618C74.1735 158.721 78.6714 155.311 78.6714 155.311H78.6643Z" fill="#1A1A1A"/>
<path d="M96.0957 151.013L97.7345 157.328C97.7345 157.328 103.971 154.096 102.516 151.674C101.062 149.251 96.0957 151.013 96.0957 151.013Z" fill="#1A1A1A"/>
<path d="M201.443 108.191C201.443 108.191 200.507 113.533 199.535 114.166C198.563 114.805 194.072 112.113 194.831 109.932C195.59 107.758 201.436 108.184 201.436 108.184L201.443 108.191Z" fill="#1A1A1A"/>
<path d="M218.604 110.94C218.604 110.94 216.277 115.743 216.497 117.675C216.497 117.675 223.329 117.71 223.741 115.039C224.06 112.922 218.611 110.933 218.611 110.933L218.604 110.94Z" fill="#1A1A1A"/>
<path d="M199.457 114.819C200.471 111.04 202.465 105.641 201.698 104.405C200.677 102.764 199.556 101.791 198.47 100.853C198.052 100.491 197.647 100.143 197.279 99.7803C195.022 97.571 195.555 95.8732 195.895 95.2481C196.534 94.0475 198.073 93.4366 199.634 93.7634C202.436 94.3388 205.813 97.6563 208.523 100.313C210.325 102.075 215.902 102.075 217.924 101.954C218.186 101.919 218.399 102.132 218.413 102.387C217.668 102.906 210.283 103.346 208.112 101.215C205.38 98.5371 201.975 95.1983 199.442 94.6727C198.286 94.4382 197.151 94.8502 196.711 95.6885C196.214 96.6262 196.654 97.8836 197.924 99.1267C198.286 99.4819 198.676 99.8158 199.073 100.164C200.159 101.102 201.386 102.16 202.479 103.929C203.727 105.946 200.521 113.143 199.868 114.563C199.79 114.734 199.62 114.833 199.449 114.833L199.457 114.819Z" fill="#1A1A1A"/>
<path d="M216.257 118.25C215.93 118.208 215.76 117.966 215.796 117.717C215.838 117.412 216.973 110.251 220.563 109.406C224.039 108.589 233.064 104.178 234.021 99.7163C234.149 99.1125 234 98.5939 233.582 98.2103C233 97.6704 232.007 97.5212 231.006 97.8338C228.942 98.4589 221.336 102.87 221.265 102.913C220.889 102.963 213.256 102.053 209.857 105.74C212.653 101.336 219.747 101.904 220.932 102.032C221.996 101.414 228.708 97.5639 230.737 96.9458C232.056 96.5409 233.383 96.7682 234.213 97.5283C234.866 98.1322 235.128 98.9988 234.93 99.9152C233.809 105.122 223.798 109.598 220.776 110.308C218.3 110.891 217.002 115.956 216.711 117.852C216.675 118.087 216.477 118.25 216.25 118.25H216.257Z" fill="#1A1A1A"/>
<path d="M214.319 102.885C215.32 101.258 226.281 94.5022 228.494 94.7934C230.452 95.0066 231.211 96.5339 231.339 97.3153C230.41 97.3863 230.112 95.9087 228.395 95.7169C226.933 95.5464 219.151 99.9863 214.568 102.814C214.49 102.863 214.404 102.885 214.326 102.885H214.319Z" fill="#1A1A1A"/>
<path d="M209.751 102.11C209.687 101.13 214.234 98.1464 215.32 97.5639C215.838 97.2868 216.455 96.9245 217.122 96.5267C219.435 95.1628 222.301 93.4579 224.408 93.3513C227.303 93.1808 227.891 95.0491 227.913 95.1273C226.998 95.3191 226.593 94.1612 224.458 94.2819C222.578 94.3743 219.697 96.0863 217.597 97.3295C216.916 97.7344 216.292 98.1038 215.76 98.3879C214.71 98.9491 210.056 102.011 210.006 102.039C209.928 102.089 209.843 102.117 209.751 102.117V102.11Z" fill="#1A1A1A"/>
<path d="M189.822 180.871C189.872 180.878 189.921 180.885 189.971 180.892C190.099 180.878 190.233 180.878 190.361 180.863C190.418 180.863 190.468 180.849 190.524 180.842C184.579 178.541 179.315 172.367 178.691 160.433C178.577 171.834 183.096 178.2 188.658 181.034C189.02 180.885 189.425 180.821 189.815 180.878L189.822 180.871Z" fill="#1A1A1A"/>
<path d="M223.28 115.281C223.237 115.551 219.051 142.481 217.178 153.279C216.1 159.488 213.17 176.317 202.266 180.814C202.642 180.942 202.94 181.176 203.167 181.467C214.085 176.502 217.008 159.708 218.094 153.443C219.974 142.638 224.159 115.7 223.28 115.281Z" fill="#1A1A1A"/>
<path d="M184.033 154.096C183.735 154.068 183.551 153.848 183.572 153.592C184.168 147.042 185.381 140.99 186.296 137.061C189.907 121.539 194.363 109.882 194.405 109.768C195.228 110.216 190.794 121.816 187.197 137.274C186.289 141.174 185.083 147.184 184.501 153.677C184.48 153.919 184.274 154.096 184.04 154.096H184.033Z" fill="#1A1A1A"/>
<path d="M139.224 99.8585C138.926 99.8301 138.734 99.6028 138.763 99.347C139.011 96.7542 139.082 94.4028 139.082 94.3815C140.011 94.4312 139.94 96.811 139.685 99.4394C139.664 99.6809 139.458 99.8585 139.224 99.8585Z" fill="#1A1A1A"/>
<path d="M113.577 180.963C113.875 180.963 114.166 180.963 114.464 180.97C115.386 172.033 115.684 164.056 114.712 159.637C111.725 146.083 116.521 132.557 115.698 132.103C115.649 132.238 110.76 146.012 113.804 159.836C114.769 164.212 114.478 172.104 113.577 180.963Z" fill="#1A1A1A"/>
<path d="M178.768 159.63C177.811 163.97 178.08 171.735 178.974 180.48H179.854C179.854 180.48 179.854 180.48 179.861 180.48C178.988 171.827 178.719 164.134 179.662 159.829C182.706 146.005 177.818 132.238 176.896 132.415C176.945 132.55 181.741 146.069 178.754 159.63H178.768Z" fill="#1A1A1A"/>
<path d="M216.164 118.215C213.808 118.215 211.148 117.959 208.417 117.462C201.655 116.24 195.831 113.739 194.561 111.516C194.178 110.848 194.242 110.301 194.369 109.96C195.292 107.452 198.924 107.438 201.819 107.864C199.591 108.475 195.98 108.262 195.242 110.28C195.157 110.507 195.199 110.756 195.37 111.047C196.498 113.022 202.18 115.38 208.587 116.538C212.411 117.227 216.079 117.44 218.909 117.135C221.485 116.858 223.124 116.162 223.28 115.267C223.429 114.435 221.925 112.837 218.753 111.388C221.79 111.75 224.507 113.675 224.188 115.43C223.939 116.808 222.145 117.717 219.002 118.058C218.122 118.151 217.171 118.2 216.164 118.2V118.215Z" fill="#1A1A1A"/>
<path d="M77.6212 180.778C77.9404 180.778 78.2597 180.778 78.5789 180.778C78.3377 179.812 78.1391 178.903 77.9901 178.107C77.5715 175.905 77.0678 172.808 76.5286 169.526C76.0533 166.627 75.5496 163.516 75.0246 160.539C74.982 160.284 74.7408 160.106 74.1094 160.703C74.6344 163.679 75.1381 166.784 75.6134 169.682C76.1526 172.971 76.6563 176.075 77.082 178.285C77.2239 179.038 77.4083 179.883 77.6283 180.778H77.6212Z" fill="#1A1A1A"/>
<path d="M111.392 177.674C106.632 163.899 102.261 152.199 102.219 152.079C103.134 151.866 107.511 163.587 111.839 177.063C111.491 177.667 111.442 177.667 111.399 177.667L111.392 177.674Z" fill="#1A1A1A"/>
<path d="M79.3811 162.777C76.6 162.777 74.5497 162.18 74.124 160.76C75.5429 162.244 81.7294 162.5 89.7604 160.063C95.9894 158.181 101.367 155.183 102.261 153.095C102.396 152.782 102.41 152.526 102.296 152.313C101.381 150.487 98.4512 150.843 96.1526 151.454C95.9043 151.532 95.6489 151.375 95.585 151.127C99.7425 149.528 102.162 149.983 103.134 151.894C103.297 152.214 103.425 152.746 103.119 153.457C102.112 155.808 96.6067 158.962 90.03 160.951C86.355 162.067 82.4317 162.777 79.3882 162.777H79.3811Z" fill="#1A1A1A"/>
<path d="M74.5639 161.086C73.6274 159.126 76.1956 156.526 78.8703 154.92C76.5504 157.407 74.7483 159.63 75.0108 160.49C74.6561 161.079 74.6135 161.086 74.5639 161.086Z" fill="#1A1A1A"/>
<path d="M80.3387 134.376C76.8836 127.315 74.7198 118.321 77.1177 114.599C77.8485 113.462 78.9339 112.887 80.3387 112.88C84.4677 112.88 85.9788 118.257 87.5751 123.955C88.4407 127.031 89.3346 130.22 90.6542 132.444C88.4761 130.59 87.5609 127.343 86.6812 124.21C85.1772 118.861 83.7582 113.81 80.36 113.81C79.2532 113.81 78.4515 114.244 77.8981 115.103C76.0394 117.995 77.2454 125.83 80.7643 133.722C80.4664 134.362 80.4025 134.376 80.3387 134.376Z" fill="#1A1A1A"/>
<path d="M97.735 157.79C97.2881 157.449 95.2448 149.912 95.2448 149.912C96.529 148.577 98.3026 139.271 94.7908 134.355C92.9817 131.826 83.0209 133.637 77.3737 136.82C74.926 138.198 73.7696 139.569 74.2024 140.592C74.848 142.098 76.0257 143.135 77.7213 143.675C80.9138 144.691 85.5892 143.739 89.626 141.245C85.8517 144.669 80.8784 145.657 77.4446 144.563C75.5078 143.945 74.096 142.702 73.3511 140.961C72.8899 139.881 73.1382 138.148 76.9196 136.017C82.6023 132.813 93.2158 130.554 95.5499 133.822C99.161 138.873 97.6925 148.015 96.2097 149.926L98.1891 157.215C97.8202 157.797 97.7776 157.797 97.7421 157.797L97.735 157.79Z" fill="#1A1A1A"/>
<path d="M85.3826 149.571C84.7654 149.571 84.1198 149.5 83.46 149.358C81.0053 148.825 78.4796 147.511 75.507 145.209C73.705 143.817 72.0662 142.219 70.6402 140.457C69.7533 139.356 68.5898 137.672 68.6963 135.69C68.7246 135.129 68.8594 134.561 69.1006 133.999C69.9733 131.946 72.1229 129.787 74.4358 129.787C75.8901 129.822 76.8763 130.59 77.8269 131.336C79.3594 132.522 80.2604 133.246 81.3317 134.142C79.6715 133.964 78.7776 133.246 77.5574 132.302C76.3797 131.378 75.5638 130.739 74.4925 130.71C72.5912 130.71 70.7111 132.55 69.952 134.355C69.7533 134.816 69.6469 135.285 69.6185 135.733C69.5476 136.997 70.101 138.304 71.3496 139.86C72.7331 141.565 74.3151 143.114 76.0604 144.463C78.9195 146.673 81.3246 147.93 83.6374 148.434C85.0137 148.733 86.312 148.683 87.3904 148.292C87.9509 148.093 88.7242 147.696 89.2492 146.964C90.2708 145.522 89.5401 143.888 89.008 143.036C90.9235 144.35 91.0015 146.111 90.0083 147.504C89.4833 148.243 88.6887 148.818 87.7097 149.166C86.9931 149.422 86.1985 149.557 85.3614 149.557L85.3826 149.571Z" fill="#1A1A1A"/>
<path d="M82.8077 154.025C82.5168 154.025 82.2118 154.011 81.9067 153.982C79.4094 153.748 76.7419 152.746 73.5209 150.821C71.5557 149.656 69.7395 148.264 68.122 146.687C67.1075 145.706 65.7524 144.172 65.6247 142.19C65.5892 141.629 65.6531 141.046 65.8233 140.464C66.2064 139.114 67.072 137.31 68.9662 136.372C67.7885 137.992 67.0507 139.547 66.7173 140.72C66.5825 141.203 66.5257 141.679 66.5541 142.133C66.6392 143.398 67.3416 144.634 68.7676 146.019C70.3355 147.546 72.0949 148.896 73.9963 150.026C77.0966 151.873 79.6364 152.839 81.9989 153.059C83.3966 153.194 84.6878 152.988 85.7165 152.462C86.2486 152.199 86.9651 151.716 87.3979 150.921C87.8236 150.132 87.8874 149.557 87.632 148.804C88.8523 149.5 88.7671 150.359 88.2138 151.368C87.781 152.164 87.0644 152.832 86.1351 153.293C85.1844 153.776 84.0493 154.025 82.8148 154.025H82.8077Z" fill="#1A1A1A"/>
<path d="M81.6579 162.663C81.2039 162.294 79.8843 156.099 79.8843 156.099C77.6637 155.467 76.2093 153.897 74.6201 151.596C76.9188 153.286 78.288 154.764 80.388 155.268C80.7356 155.623 82.112 162.102 82.112 162.102C81.7218 162.663 81.6934 162.663 81.6579 162.663Z" fill="#1A1A1A"/>
<path d="M98.075 151.013C97.6068 150.345 97.2449 129.126 106.361 115.096C115.556 100.952 135.946 102.821 136.151 102.849C136.542 103.609 136.308 103.822 136.059 103.773C135.861 103.751 116.024 101.94 107.135 115.608C98.1743 129.396 98.5291 150.338 98.5291 150.544C98.075 151.02 98.0679 151.02 98.0679 151.02L98.075 151.013Z" fill="#1A1A1A"/>
<path d="M190.333 124.033C188.957 120.886 185.715 115.643 185.679 115.593C176.79 101.926 158.5 103.652 158.315 103.666C158.415 102.721 177.265 100.945 186.467 115.096C186.609 115.324 189.808 120.488 190.78 123.429C190.44 124.033 190.39 124.04 190.34 124.04L190.333 124.033Z" fill="#1A1A1A"/>
<path d="M146.801 102.11C138.053 102.11 137.415 97.9617 137.394 97.7841C138.316 97.6918 138.94 101.18 146.801 101.18C154.662 101.18 155.045 97.7202 155.045 97.6847C155.96 97.9333 155.577 102.11 146.801 102.11Z" fill="#1A1A1A"/>
<path d="M133.804 98.3098C133.804 96.8819 134.726 95.6601 136.4 94.2677C136.315 94.2464 136.23 94.2251 136.145 94.1967C136.024 94.1612 135.918 94.0901 135.826 94.012C133.449 95.4185 132.867 97.0595 132.867 98.3098C132.867 101.009 134.79 103.51 138.209 105.037C138.387 105.037 138.557 104.938 138.401 104.149C135.513 102.821 133.789 100.64 133.789 98.3098H133.804Z" fill="#1A1A1A"/>
<path d="M157.953 94.147C157.868 94.2891 157.776 94.424 157.677 94.5448C159.621 95.5749 160.671 96.8678 160.671 98.3027C160.671 101.904 155.96 105.733 147.241 105.733C145.964 105.733 144.736 105.662 143.48 106.444C144.658 106.593 145.921 106.664 147.241 106.664C156.57 106.664 161.6 102.352 161.6 98.3027C161.6 96.5055 160.373 94.9213 157.953 94.1399V94.147Z" fill="#1A1A1A"/>
<path d="M136.01 110.685C135.719 110.663 135.528 110.443 135.549 110.187C135.939 104.966 135.017 102.941 135.01 102.92C135.889 102.601 136.89 104.732 136.478 110.258C136.464 110.5 136.258 110.685 136.017 110.685H136.01Z" fill="#1A1A1A"/>
<path d="M158.201 110.685C157.321 104.732 158.329 102.65 158.371 102.565C159.194 102.998 158.272 104.973 158.662 110.18C158.222 110.678 158.208 110.678 158.201 110.678V110.685Z" fill="#1A1A1A"/>
<path d="M71.7334 180.963H209.581" stroke="#1A1A1A" stroke-width="1.56" stroke-miterlimit="10"/>
<path d="M132.03 74.6114C133.264 74.0289 134.548 73.3825 135.456 72.3453C136.01 71.7202 136.698 71.5355 137.343 71.6349C137.769 70.5694 138.095 69.3901 138.28 68.1256C138.28 68.1185 138.28 68.1114 138.28 68.0972C137.932 67.8628 137.656 67.536 137.535 67.1382C137.223 66.1153 137.138 65.0497 137.414 64.0054C137.542 63.5224 137.776 63.1174 138.095 62.812C137.443 60.006 135.882 57.9885 133.825 57.6901C130.604 57.2213 127.368 61.1426 126.602 66.4349C125.864 71.5284 127.688 76.0393 130.696 76.7852C130.611 75.8617 131.164 75.0021 132.03 74.5972V74.6114Z" fill="white"/>
<path d="M130.405 77.3819C126.056 76.4797 124.509 71.365 125.85 65.6109C127.191 59.8568 130.837 55.9568 134.158 56.7382C137.478 57.5125 139.024 62.6273 137.684 68.3743C137.201 70.4841 137.024 71.2513 136.165 72.5868C135.832 70.7469 135.967 70.136 136.307 68.6655C137.584 63.2027 136.407 58.5781 133.874 57.9814C131.355 57.3918 128.241 61.0147 127.106 65.9021C125.971 70.7896 127.141 75.4142 129.674 76.0038C131.1 77.0978 130.802 77.3819 130.412 77.3819H130.405Z" fill="#1A1A1A"/>
<path d="M141.579 69.8875C139.252 67.5645 137.585 68.829 137.407 68.9782C137.535 67.2022 139.89 66.3498 142.061 68.8219C141.884 69.8306 141.735 69.8875 141.579 69.8875Z" fill="#1A1A1A"/>
<path d="M132.69 80.5574C132.129 80.2519 129.973 77.8721 130.15 75.4426C130.271 73.7874 131.413 73.4891 132.52 73.1978C133.378 72.9705 134.357 72.7148 135.379 71.8481C137.613 69.9514 137.408 65.0142 137.408 64.9645C138.699 65.135 138.919 70.5197 136.209 72.8213C134.967 73.8727 133.74 74.1995 132.853 74.4339C131.697 74.7393 131.484 74.8459 131.434 75.535C131.299 77.4104 133.151 79.4634 133.172 79.4847C133.009 80.5076 132.853 80.5574 132.697 80.5574H132.69Z" fill="#1A1A1A"/>
<path d="M151.767 73.2191C151.767 73.2191 148.659 80.0388 144.289 78.9661C139.919 77.8934 141.487 69.6175 141.487 69.6175C141.487 69.6175 142.487 60.482 148.333 60.212C154.179 59.9421 152.689 71.571 151.774 73.2191H151.767Z" fill="white"/>
<path d="M145.509 79.9749C143.005 79.4919 141.742 78.0143 141.103 75.7268C140.5 73.5744 140.507 70.9104 141.132 68.2323C141.756 65.5542 142.92 63.1673 144.417 61.4979C146.006 59.729 147.786 58.9689 149.439 59.3525C151.093 59.7361 152.348 61.2137 152.994 63.5011C153.597 65.6536 153.59 68.3175 152.958 70.9957C152.334 73.6738 151.171 76.0607 149.674 77.7301C148.361 79.2006 146.907 79.9749 145.509 79.9749ZM148.588 60.546C147.552 60.546 146.431 61.1711 145.367 62.3574C144.012 63.8634 142.955 66.0514 142.373 68.5236C141.799 70.9957 141.777 73.4252 142.324 75.3787C142.834 77.1973 143.764 78.3481 144.934 78.6252C146.105 78.9022 147.453 78.2771 148.716 76.8777C150.064 75.3716 151.128 73.1837 151.703 70.7115C152.277 68.2465 152.299 65.8028 151.752 63.8563C151.242 62.0378 150.319 60.8869 149.142 60.6099C148.964 60.5673 148.773 60.546 148.581 60.546H148.588Z" fill="#1A1A1A"/>
<path d="M35.7924 68.701H25.7891V78.7174H35.7924V68.701Z" fill="#1A1A1A"/>
<path d="M35.4301 41.6071H26.1504V50.8989H35.4301V41.6071Z" fill="#1A1A1A"/>
<path d="M56.458 41.6071H105.29" stroke="#1A1A1A" stroke-width="1.27" stroke-miterlimit="10"/>
<path d="M59.6934 46.8427H93.4492" stroke="#1A1A1A" stroke-width="1.27" stroke-miterlimit="10"/>
<path d="M59.6934 52.0781H82.6159" stroke="#1A1A1A" stroke-width="1.27" stroke-miterlimit="10"/>
<path d="M56.458 68.3743H105.29" stroke="#1A1A1A" stroke-width="1.27" stroke-miterlimit="10"/>
<path d="M59.6934 73.6099H93.4492" stroke="#1A1A1A" stroke-width="1.27" stroke-miterlimit="10"/>
<path d="M59.6934 78.8453H82.6159" stroke="#1A1A1A" stroke-width="1.27" stroke-miterlimit="10"/>
</g>
<defs>
<clipPath id="clip0_780_1492">
<rect width="235" height="182" fill="white"/>
</clipPath>
</defs>
</svg>
